<svg width="509" height="97" viewBox="0 0 509 97" fill="none" xmlns="http://www.w3.org/2000/svg">
<g clip-path="url(#clip0_5513_2)">
<path d="M170.85 20.2002H198.15C204.73 20.2002 210.297 21.2269 214.85 23.2802C219.042 25.0427 222.602 28.0341 225.06 31.8602C227.361 35.6399 228.54 39.9959 228.46 44.4202C228.511 48.8648 227.286 53.2307 224.93 57.0002C222.303 60.9822 218.545 64.0884 214.14 65.9202C209.313 68.1202 203.33 69.2169 196.19 69.2102H170.85V20.2002ZM195.91 56.7402C200.343 56.7402 203.75 55.6335 206.13 53.4202C207.337 52.2499 208.28 50.8353 208.895 49.271C209.511 47.7068 209.785 46.0291 209.7 44.3502C209.774 42.7918 209.531 41.2345 208.984 39.7732C208.437 38.312 207.599 36.9772 206.52 35.8502C204.387 33.7302 201.177 32.6669 196.89 32.6602H188.35V56.7402H195.91Z" fill="#3D3D3D"/>
<path d="M269.34 69.1303C265.739 68.2279 262.293 66.7884 259.12 64.8604V53.2404C261.89 55.2553 265.01 56.7403 268.32 57.6203C271.942 58.7253 275.704 59.3013 279.49 59.3304C280.797 59.4001 282.103 59.1745 283.31 58.6703C284.17 58.2303 284.6 57.6704 284.6 57.0904C284.609 56.7663 284.552 56.4438 284.432 56.1428C284.311 55.8418 284.13 55.5687 283.9 55.3404C283.101 54.726 282.164 54.3174 281.17 54.1504L272.77 52.2603C267.957 51.1403 264.54 49.5904 262.52 47.6104C261.506 46.5876 260.716 45.3651 260.199 44.0207C259.683 42.6762 259.452 41.239 259.52 39.8004C259.486 37.1931 260.436 34.6688 262.18 32.7304C264.248 30.5431 266.855 28.9392 269.74 28.0804C273.452 26.9135 277.329 26.3563 281.22 26.4304C284.852 26.3962 288.474 26.8196 292 27.6904C294.848 28.3652 297.583 29.4498 300.12 30.9104V41.9104C297.741 40.5302 295.184 39.4838 292.52 38.8004C289.634 38.0265 286.658 37.6364 283.67 37.6404C279.283 37.6404 277.09 38.387 277.09 39.8804C277.083 40.2129 277.174 40.5402 277.352 40.8213C277.53 41.1023 277.786 41.3246 278.09 41.4604C279.289 41.9699 280.544 42.3326 281.83 42.5404L288.83 43.8004C293.377 44.6004 296.767 46.0004 299 48.0004C301.233 50.0004 302.353 52.927 302.36 56.7803C302.396 58.8066 301.9 60.8069 300.923 62.5823C299.946 64.3577 298.521 65.8464 296.79 66.9004C293.103 69.3737 287.84 70.607 281 70.6003C277.067 70.6064 273.149 70.1125 269.34 69.1303Z" fill="#3D3D3D"/>
<path d="M318.9 67.6597C315.158 65.9402 312.004 63.1581 309.83 59.6597C307.803 56.229 306.764 52.3041 306.83 48.3197C306.77 44.3377 307.864 40.4234 309.98 37.0497C312.236 33.6063 315.447 30.8956 319.22 29.2497C323.808 27.2507 328.778 26.2813 333.78 26.4097C340.78 26.4097 346.59 27.8797 351.21 30.8197V43.6497C349.453 42.4682 347.532 41.5485 345.51 40.9197C343.246 40.205 340.884 39.8507 338.51 39.8697C334.17 39.8697 330.773 40.663 328.32 42.2497C327.217 42.8652 326.297 43.7619 325.653 44.8484C325.01 45.935 324.665 47.1727 324.655 48.4356C324.645 49.6986 324.969 50.9416 325.595 52.0384C326.222 53.1352 327.127 54.0465 328.22 54.6797C330.6 56.2864 334.053 57.0897 338.58 57.0897C340.917 57.0953 343.241 56.7584 345.48 56.0897C347.522 55.5042 349.484 54.6678 351.32 53.5997V65.9997C345.909 69.1545 339.732 70.7532 333.47 70.6197C328.451 70.7567 323.468 69.7442 318.9 67.6597Z" fill="#3D3D3D"/>
<path d="M368.64 67.6601C364.856 65.9321 361.646 63.1558 359.39 59.6601C357.264 56.2375 356.161 52.2788 356.21 48.2501C356.142 44.2692 357.248 40.3564 359.39 37.0001C361.658 33.5933 364.854 30.9073 368.6 29.2601C377.802 25.5266 388.098 25.5266 397.3 29.2601C401.032 30.8947 404.215 33.5675 406.47 36.9601C408.597 40.3288 409.693 44.2465 409.62 48.2301C409.67 52.2547 408.577 56.211 406.47 59.6401C404.239 63.1382 401.044 65.9165 397.27 67.6401C392.747 69.5799 387.877 70.5801 382.955 70.5801C378.033 70.5801 373.163 69.5799 368.64 67.6401V67.6601ZM389.91 55.2401C390.775 54.3473 391.448 53.2871 391.888 52.1246C392.329 50.9621 392.526 49.7219 392.47 48.4801C392.53 47.2499 392.334 46.0207 391.893 44.8706C391.453 43.7205 390.777 42.6748 389.91 41.8001C388.969 40.9375 387.865 40.2726 386.663 39.8449C385.46 39.4171 384.184 39.2353 382.91 39.3101C381.637 39.2431 380.363 39.4287 379.161 39.856C377.96 40.2833 376.855 40.9441 375.91 41.8001C375.046 42.6767 374.374 43.723 373.935 44.8728C373.496 46.0225 373.3 47.2509 373.36 48.4801C373.304 49.721 373.501 50.9603 373.94 52.1225C374.378 53.2846 375.048 54.3454 375.91 55.2401C376.846 56.1135 377.948 56.7894 379.151 57.2275C380.353 57.6656 381.632 57.8569 382.91 57.7901C384.189 57.8645 385.47 57.6767 386.673 57.2382C387.877 56.7997 388.979 56.1197 389.91 55.2401Z" fill="#3D3D3D"/>
<path d="M451.69 29.0002V44.1402C449.6 42.8931 447.191 42.2848 444.76 42.3902C441.03 42.3902 438.15 43.5302 436.15 45.7902C434.15 48.0502 433.15 51.5602 433.15 56.3202V69.2001H416V28.2502H432.8V41.2502C433.733 36.4902 435.24 32.9801 437.32 30.7201C438.328 29.6088 439.566 28.7294 440.947 28.1424C442.328 27.5554 443.82 27.2749 445.32 27.3202C447.56 27.259 449.771 27.8421 451.69 29.0002Z" fill="#3D3D3D"/>
<path d="M508.67 18.7998V69.1998H491.52V59.9998C490.227 63.2751 487.903 66.0409 484.9 67.8798C481.585 69.7686 477.814 70.7096 474 70.5998C470.411 70.6834 466.878 69.6983 463.85 67.7698C460.918 65.8649 458.582 63.1719 457.11 59.9998C455.505 56.4984 454.705 52.6813 454.77 48.8298C454.657 44.8365 455.508 40.8747 457.25 37.2798C458.852 33.987 461.351 31.2138 464.46 29.2798C467.656 27.3435 471.334 26.3487 475.07 26.4098C483.23 26.4098 488.714 29.9565 491.52 37.0498V18.7998H508.67ZM489 54.9998C489.874 54.1395 490.56 53.1066 491.012 51.9668C491.465 50.827 491.676 49.6054 491.63 48.3798C491.667 47.1909 491.452 46.0077 490.999 44.908C490.546 43.8083 489.864 42.8172 489 41.9998C487.038 40.4024 484.585 39.5302 482.055 39.5302C479.525 39.5302 477.072 40.4024 475.11 41.9998C474.248 42.8359 473.572 43.8442 473.126 44.9589C472.68 46.0737 472.473 47.27 472.52 48.4698C472.476 49.6809 472.687 50.8878 473.138 52.0125C473.589 53.1373 474.271 54.1549 475.14 54.9998C476.059 55.8539 477.139 56.5158 478.317 56.9468C479.495 57.3778 480.747 57.5692 482 57.5098C483.276 57.5802 484.552 57.3944 485.754 56.9633C486.957 56.5322 488.06 55.8646 489 54.9998Z" fill="#3D3D3D"/>
<path d="M107.7 8.07C99.3467 4.24568 90.5282 1.53258 81.4699 0C80.2304 2.21588 79.1088 4.49573 78.1099 6.83C68.461 5.37602 58.6488 5.37602 48.9999 6.83C48.0005 4.49597 46.8789 2.21615 45.6399 0C36.5758 1.54552 27.7515 4.26506 19.3899 8.09C2.7899 32.65 -1.7101 56.6 0.539904 80.21C10.2613 87.3926 21.1423 92.8551 32.7099 96.36C35.3146 92.8568 37.6194 89.1403 39.5999 85.25C35.8382 83.8451 32.2076 82.1117 28.7499 80.07C29.6599 79.41 30.5499 78.73 31.4099 78.07C41.4709 82.8014 52.4519 85.2546 63.5699 85.2546C74.6879 85.2546 85.6689 82.8014 95.7299 78.07C96.5999 78.78 97.4899 79.46 98.3899 80.07C94.9256 82.115 91.2882 83.8517 87.5199 85.26C89.498 89.1485 91.8029 92.8619 94.4099 96.36C105.987 92.8691 116.877 87.4092 126.6 80.22C129.24 52.84 122.09 29.11 107.7 8.07ZM42.4499 65.69C36.1799 65.69 30.9999 60 30.9999 53C30.9999 46 35.9999 40.26 42.4299 40.26C48.8599 40.26 53.9999 46 53.8899 53C53.7799 60 48.8399 65.69 42.4499 65.69ZM84.6899 65.69C78.4099 65.69 73.2499 60 73.2499 53C73.2499 46 78.2499 40.26 84.6899 40.26C91.1299 40.26 96.2299 46 96.1199 53C96.0099 60 91.0799 65.69 84.6899 65.69Z" fill="#3D3D3D"/>
<path d="M242.92 32.61C247.642 32.61 251.47 29.1715 251.47 24.93C251.47 20.6885 247.642 17.25 242.92 17.25C238.198 17.25 234.37 20.6885 234.37 24.93C234.37 29.1715 238.198 32.61 242.92 32.61Z" fill="#3D3D3D"/>
<path d="M234.36 37.9004C237.068 39.0387 239.977 39.6251 242.915 39.6251C245.853 39.6251 248.761 39.0387 251.47 37.9004V69.4204H234.36V37.9004Z" fill="#3D3D3D"/>
</g>
<defs>
<clipPath id="clip0_5513_2">
<rect width="508.67" height="96.36" fill="white"/>
</clipPath>
</defs>
</svg>
