<svg width="1707" height="1286" viewBox="0 0 1707 1286" fill="none" xmlns="http://www.w3.org/2000/svg">
<g clip-path="url(#clip0_5665_2)">
<path d="M1288 0.66606C1288 1.06606 1289.73 10.2661 1292 21.0661C1300 61.4661 1306.8 83.0661 1319.33 108.666C1339.87 151.066 1368.53 175.866 1408.8 185.999C1420.93 189.199 1442.67 192.266 1444 191.066C1444.4 190.666 1444.67 180.133 1444.67 167.599C1444.67 147.599 1444.27 143.199 1441.47 133.333C1430.67 94.5327 1404.4 62.7994 1360.27 35.5994C1347.2 27.4661 1316.27 11.5994 1299.6 4.53273C1288.53 -0.267274 1288 -0.400607 1288 0.66606Z" fill="black"/>
<path d="M411.333 4.00207C408.4 5.46874 397.2 10.6687 386.533 15.7354C310.933 51.4687 272.667 91.7354 263.333 145.202C261.2 156.802 260.667 176.535 262.133 187.202L263.067 193.469L269.2 192.669C294.533 189.335 309.067 185.469 324.667 177.735C363.733 158.135 390.4 119.469 406.533 58.6687C410.133 45.3354 418.667 5.60207 418.667 2.40207C418.667 0.935407 417.467 1.20207 411.333 4.00207Z" fill="black"/>
<path d="M1499.47 60.9328C1482.13 95.8661 1472.13 121.866 1466.4 147.599C1462.13 166.533 1462.13 198.533 1466.4 214.666C1472.53 237.466 1484 257.066 1502.53 276.399L1513.73 288.133L1519.07 283.066C1533.47 269.333 1548.13 244.666 1554 224.666C1559.87 204.399 1560.4 174.933 1555.33 149.999C1552.4 135.599 1543.07 107.999 1534.67 89.3328C1527.73 73.8661 1511.07 41.3328 1510 41.3328C1509.6 41.3328 1504.93 50.1328 1499.47 60.9328Z" fill="black"/>
<path d="M187.733 58.9354C160 111.202 147.867 150.402 147.867 186.935C147.867 205.202 149.2 215.069 153.6 229.069C159.2 247.335 172.533 269.335 185.733 282.402L192.933 289.469L203.2 278.935C216 266.002 223.867 254.935 231.467 239.335C239.067 223.735 242.533 209.602 243.6 190.535C245.333 156.402 234.8 118.802 208.8 65.6021C202.533 53.0687 197.2 42.6687 196.933 42.6687C196.667 42.6687 192.533 50.0021 187.733 58.9354Z" fill="black"/>
<path d="M1317.33 177.335C1317.33 180.401 1335.07 231.601 1340.4 244.135C1364.53 300.268 1395.87 332.135 1438.67 344.401C1458.8 350.268 1491.33 352.801 1492.8 348.668C1493.2 347.601 1492.93 339.601 1492.13 330.935C1485.87 262.535 1443.33 219.601 1349.33 186.668C1325.6 178.268 1317.33 175.868 1317.33 177.335Z" fill="black"/>
<path d="M366 185.198C313.067 203.065 281.733 219.998 256.133 244.665C229.333 270.398 216.667 298.932 214 338.532L213.067 352.398L231.6 351.598C300.533 348.532 344.533 309.198 375.067 223.332C381.067 206.532 389.733 178.532 389.067 177.998C388.8 177.865 378.533 181.065 366 185.198Z" fill="black"/>
<path d="M1602 236.401C1559.73 289.068 1539.07 327.068 1533.33 362.935C1530.93 377.601 1532.27 404.535 1536 417.335C1539.73 430.401 1547.73 447.468 1556.27 460.268C1563.87 471.868 1562.53 471.735 1575.33 462.268C1626.8 424.135 1642.4 365.601 1624 280.801C1620.8 266.268 1610.8 230.401 1609.6 229.068C1609.07 228.535 1605.6 231.868 1602 236.401Z" fill="black"/>
<path d="M96.9334 230.267C95.7334 232.267 85.3334 270.267 82.6667 282.267C67.8667 350 75.0667 401.2 104.667 438.267C109.467 444.267 116.533 451.867 120.4 455.067C129.333 462.667 141.733 472 142.933 472C144.4 472 155.333 454.667 161.2 443.067C170.133 425.067 173.6 411.6 174.267 390.533C174.8 376.667 174.533 369.867 172.8 361.2C166.8 331.733 154.4 305.733 129.733 270.933C116.667 252.667 97.7334 229.067 96.9334 230.267Z" fill="black"/>
<path d="M1412.53 369.466C1416 452.266 1433.6 501.333 1470.53 530.933C1486.93 543.999 1512.93 556.399 1530.27 559.199L1535.73 560.133L1538.8 547.733C1543.2 529.733 1543.33 498.799 1538.93 482.666C1530.93 453.066 1511.87 424.399 1482.67 397.866C1466.93 383.599 1437.47 361.866 1416.8 349.333L1411.6 346.133L1412.53 369.466Z" fill="black"/>
<path d="M272.667 362.399C246 380.265 235.067 388.932 216.933 406.532C179.2 443.199 162.667 478.932 164.4 520.665C165.2 540.265 169.733 561.332 173.2 561.332C182.8 561.332 212.933 548.932 228.133 538.532C260.933 516.532 282.267 475.865 289.867 421.599C292.4 403.865 295.067 364.799 294.4 355.065L294 347.999L272.667 362.399Z" fill="black"/>
<path d="M1663.73 442.532C1620.8 468.398 1593.07 491.198 1575.6 514.932C1555.2 542.665 1546.8 569.465 1548.4 601.198C1549.07 614.398 1552 632.265 1554.67 639.332L1555.87 642.398L1564.93 640.132C1617.2 626.532 1652.13 589.865 1669.33 530.132C1674.27 513.198 1679.33 483.865 1681.2 461.332C1683.47 435.332 1683.87 430.665 1683.47 430.665C1683.33 430.665 1674.4 435.998 1663.73 442.532Z" fill="black"/>
<path d="M23.1999 437.6C23.5999 440 24.2666 447.733 24.6666 454.667C30.7999 548.667 60.9332 607.067 116.4 632.667C124.667 636.533 147.333 644 150.533 644C151.733 644 155.467 628.267 157.467 614.667C159.467 601.6 158.133 576.667 154.933 564.667C144.133 525.333 116.933 492.933 65.9999 458.667C53.0666 450 25.3332 433.333 23.7332 433.333C23.0666 433.333 22.7999 435.333 23.1999 437.6Z" fill="black"/>
<path d="M1418.93 512.8C1405.2 576.934 1404.13 625.467 1415.6 660C1426.8 694.267 1447.47 718 1483.2 737.6C1488.27 740.4 1492.53 742.534 1492.8 742.4C1492.93 742.134 1495.47 737.2 1498.4 731.334C1509.6 708.934 1514.13 687.2 1512.93 663.6C1510.4 618.4 1485.6 573.2 1433.87 520.134L1420.27 506.134L1418.93 512.8Z" fill="black"/>
<path d="M270.267 524.268C246.267 550.001 233.467 565.868 221.333 585.335C189.467 636.135 184.933 684.135 207.333 731.335C213.867 745.201 213.333 744.668 220.133 741.335C231.867 735.335 248 724.001 257.733 714.801C279.467 694.135 292.667 667.468 297.333 635.201C299.467 620.268 299.067 584.935 296.533 565.335C294.4 548.935 287.333 509.468 286.267 508.401C285.867 508.135 278.8 515.201 270.267 524.268Z" fill="black"/>
<path d="M1682 630C1615.33 640.667 1575.2 656.933 1547.2 684.667C1532.53 699.067 1521.33 718 1514.67 739.6C1511.87 748.533 1507.6 772 1508.53 772.933C1509.87 774.267 1527.47 776 1540 776C1595.6 776 1640.93 743.867 1681.2 675.867C1688.93 662.8 1706.67 629.067 1706.67 627.467C1706.67 626.267 1702.13 626.667 1682 630Z" fill="black"/>
<path d="M-1.89735e-06 628.935C-1.89735e-06 629.335 4.93333 639.468 11.0667 651.201C31.4667 690.668 46 711.601 67.8667 733.468C89.3333 754.801 108.933 766.935 133.467 773.601C143.2 776.268 147.733 776.668 168 776.668C180.8 776.668 192.933 776.268 195.067 775.601C198.533 774.668 198.667 774.268 197.867 768.935C190 714.401 164.8 680.001 115.6 656.668C91.3333 645.201 63.8667 637.735 22.5333 631.335C-2 627.468 -1.89735e-06 627.735 -1.89735e-06 628.935Z" fill="black"/>
<path d="M1378.93 696.666C1365.2 741.999 1360.53 770.399 1361.73 801.199C1363.2 838.932 1374.4 865.599 1399.47 890.799C1410.67 902.132 1429.87 916.666 1431.87 915.332C1434.4 913.866 1446.67 892.932 1450.67 883.066C1463.33 852.799 1464.27 823.199 1454 787.332C1449.47 771.732 1433.6 739.332 1421.33 720.666C1411.2 705.466 1387.87 673.466 1386.67 673.332C1386.27 673.332 1382.8 683.866 1378.93 696.666Z" fill="black"/>
<path d="M305.6 693.6C247.733 770.667 232.533 830.133 256.533 885.6C261.333 896.533 267.733 908 272.8 914.267L275.733 918L282.8 913.067C313.333 892 332.133 866.4 340.933 834C344.4 821.6 344.667 818.8 344.667 794.667C344.667 767.333 343.467 757.867 336.667 730C332 711.067 321.067 676 319.867 676C319.333 676 312.8 684 305.6 693.6Z" fill="black"/>
<path d="M1307.73 788C1276 846.667 1263.73 883.867 1263.87 921.467C1264 960 1278.53 992 1308.93 1020.4L1312.93 1024L1321.33 1015.47C1352.53 983.6 1365.07 942.8 1357.87 894.933C1353.73 866.933 1343.47 837.067 1324.93 799.333L1313.87 776.8L1307.73 788Z" fill="black"/>
<path d="M381.733 800.932C368.4 828.399 361.067 846.532 355.333 866.932C340.533 917.999 345.333 962.132 369.467 997.865C376.8 1008.53 391.733 1025.33 394 1025.33C396.933 1025.33 416.8 1002 424.133 990.132C446.667 953.465 448.933 911.999 431.2 859.732C426.133 844.399 399.733 788.265 394.133 780.665C392.8 778.799 391.067 781.599 381.733 800.932Z" fill="black"/>
<path d="M1628.8 781.468C1572.13 786.135 1531.73 800.268 1505.73 824.535C1485.6 843.335 1474.67 861.735 1466 891.068L1462.93 901.468L1466.4 902.801C1477.07 906.801 1490.8 908.668 1510.67 908.668C1528.13 908.535 1533.07 908.135 1542.67 905.468C1586.67 893.201 1624.67 860.268 1666.4 797.735C1672.4 788.801 1677.33 781.201 1677.33 780.801C1677.33 779.735 1644.53 780.135 1628.8 781.468Z" fill="black"/>
<path d="M29.3333 782.135C29.3333 784.268 54.6666 820.935 65.7333 834.668C79.5999 851.868 102.667 874.535 116 883.868C129.333 893.202 146.667 901.868 160.933 906.268C171.733 909.468 174.667 909.868 196 909.868C216.133 910.002 220.933 909.602 231.6 906.935L243.733 903.868L241.2 894.268C222.933 828.268 177.2 794.402 93.0666 784.802C72.5333 782.402 29.3333 780.535 29.3333 782.135Z" fill="black"/>
<path d="M1208.4 897.333C1174.4 930.933 1155.2 956.267 1144 982.267C1130.27 1014.27 1128.67 1043.6 1138.93 1076C1142.13 1086.13 1150.53 1105.33 1152.8 1107.87C1153.07 1108.13 1157.6 1106.13 1162.93 1103.33C1202.4 1083.33 1227.2 1049.6 1236.53 1003.2C1241.87 976.8 1241.6 935.2 1236 896.267C1234.53 886.267 1233.33 877.2 1233.33 876.267C1233.33 875.467 1232.8 874.667 1232.27 874.667C1231.73 874.667 1220.93 884.8 1208.4 897.333Z" fill="black"/>
<path d="M472.267 886.399C466.533 924.265 464.8 966.799 467.867 990.932C471.2 1016.27 479.6 1040.67 491.2 1058.8C499.067 1070.93 516.133 1088 528.667 1096.13C538.267 1102.4 551.067 1109.33 553.067 1109.33C556.133 1109.33 568.4 1078.93 572.133 1062C575.067 1048.8 574.4 1021.47 570.8 1008C564.4 983.999 553.733 963.199 535.867 939.999C526.133 927.332 491.467 890.932 479.867 881.199L473.733 876.132L472.267 886.399Z" fill="black"/>
<path d="M1464.8 927.333C1422.8 934.133 1391.6 953.867 1369.87 987.333C1362.53 998.667 1356 1010.93 1356 1013.33C1356 1015.73 1377.87 1025.33 1391.33 1028.67C1438.4 1040.67 1484.27 1027.2 1535.33 986.667C1541.2 982 1555.87 968.4 1567.87 956.533L1589.87 935.067L1580.53 933.467C1547.87 927.733 1535.47 926.4 1506.67 926C1484.67 925.6 1473.47 925.867 1464.8 927.333Z" fill="black"/>
<path d="M173.333 928.133C161.2 929.466 118.267 935.999 117.6 936.666C116.8 937.466 152.8 972.666 164 982.133C191.467 1005.33 222.8 1023.07 248 1030C270.933 1036.27 297.6 1035.87 319.867 1029.07C334.533 1024.67 350.667 1017.2 350.667 1014.93C350.667 1011.6 338.933 991.199 330.533 980.133C308 950.133 276.667 933.199 234.667 927.999C221.467 926.399 189.6 926.533 173.333 928.133Z" fill="black"/>
<path d="M1114 997.601C1111.87 998.135 1100.4 1000.8 1088.67 1003.47C999.2 1023.73 951.467 1059.47 936 1118C933.067 1129.2 929.6 1155.33 930.933 1156.67C932.667 1158.4 967.733 1157.33 978.533 1155.33C1026.93 1146 1065.07 1111.07 1097.73 1045.87C1104.8 1031.73 1118.93 998.668 1118.4 997.335C1118.13 996.935 1116.27 996.935 1114 997.601Z" fill="black"/>
<path d="M588 999.068C588 1000.93 599.333 1027.07 607.2 1043.33C622.533 1075.07 637.067 1097.2 654.533 1115.07C676.533 1137.87 698.667 1150.53 727.2 1156.93C737.067 1159.07 773.6 1160.13 775.467 1158.27C777.067 1156.8 773.867 1131.6 770.667 1119.33C769.067 1113.47 765.2 1103.07 761.867 1096.13C740.267 1050.27 696.8 1023.2 614.267 1004.13C591.467 998.935 588 998.135 588 999.068Z" fill="black"/>
<path d="M1323.33 1041.47C1292.8 1044.53 1265.87 1057.2 1243.73 1079.2C1234.4 1088.4 1222.67 1102.8 1222.67 1105.07C1222.67 1107.07 1241.33 1119.47 1252.93 1125.33C1270.4 1134 1284.53 1137.6 1305.33 1138.27C1338.93 1139.47 1369.6 1131.07 1408.67 1109.6C1421.73 1102.53 1466.67 1073.33 1466.67 1072C1466.67 1070.8 1419.6 1054.67 1402.53 1050.13C1374.27 1042.53 1345.2 1039.33 1323.33 1041.47Z" fill="black"/>
<path d="M345.333 1043.47C343.467 1043.73 337.867 1044.67 332.667 1045.47C312.933 1048.53 277.067 1059.07 243.467 1072L239.6 1073.47L248.133 1079.6C265.333 1092.27 291.867 1108.4 310 1117.33C344.4 1134.27 367.2 1140.27 396 1140.27C416.933 1140.13 432.533 1136.93 450 1128.8C460.133 1124.13 481.733 1110.53 483.467 1107.87C484.667 1105.73 478 1096.67 465.733 1083.87C447.2 1064.67 427.733 1052.93 404 1046.67C394.933 1044.27 388.267 1043.6 370.667 1043.33C358.533 1043.07 347.2 1043.07 345.333 1043.47Z" fill="black"/>
<path d="M1141.2 1126C1129.73 1128.13 1114.8 1133.33 1103.87 1138.8C1095.87 1142.8 1079.87 1153.33 1075.07 1157.73L1072.13 1160.4L1077.87 1167.87C1092.27 1186.53 1114.27 1203.73 1134 1211.87C1164.8 1224.67 1204.27 1225.87 1251.33 1215.33C1268.53 1211.47 1316 1196.53 1316 1194.93C1316 1193.87 1282.13 1169.6 1270.67 1162.4C1244.67 1145.87 1219.33 1134.4 1197.2 1128.8C1179.6 1124.27 1156 1123.2 1141.2 1126Z" fill="black"/>
<path d="M527.733 1126.67C492.533 1131.07 451.733 1150.8 403.467 1186.67L390.133 1196.53L394.133 1198.27C402.133 1201.73 431.067 1210.8 446.267 1214.67C471.067 1220.93 484.4 1222.93 506.8 1223.6C545.6 1224.93 573.867 1217.2 599.867 1198C609.333 1190.93 624.133 1176.27 630.533 1167.33L634.8 1161.47L626.4 1155.2C595.467 1132.4 560.933 1122.4 527.733 1126.67Z" fill="black"/>
<path d="M845.733 1157.34C825.333 1162.14 814.4 1184.54 823.2 1203.34C835.2 1229.2 871.6 1228.8 883.067 1202.67C890.933 1184.94 881.2 1163.6 862.533 1158.14C854.933 1155.87 852.4 1155.74 845.733 1157.34Z" fill="black"/>
<path d="M978 1182.27C956.8 1184.93 934.533 1193.2 914.933 1205.6L907.867 1210.13L914.8 1220.8C928.133 1240.93 951.467 1261.33 971.2 1270C1011.6 1287.87 1062 1288 1132.4 1270.27L1149.47 1266L1133.07 1251.87C1100.8 1224.13 1081.87 1210.93 1056.67 1198.53C1028.8 1184.93 1001.6 1179.33 978 1182.27Z" fill="black"/>
<path d="M700.667 1184.13C658.667 1189.87 616.667 1214.13 558.933 1266.13C557.467 1267.33 561.067 1268.67 576.933 1272.4C618.267 1282.4 635.067 1284.67 666 1284.53C699.333 1284.53 720 1280 742.667 1267.87C761.333 1257.87 778.8 1241.6 791.867 1222.13L798.8 1212L790.4 1206.53C762.667 1188.67 729.067 1180.27 700.667 1184.13Z" fill="black"/>
<g clip-path="url(#clip1_5665_2)">
<path d="M1122.5 238.244C1071.58 214.908 1017.83 198.352 962.611 189C955.056 202.522 948.219 216.433 942.13 230.677C883.314 221.805 823.502 221.805 764.686 230.677C758.594 216.435 751.757 202.523 744.205 189C688.953 198.431 635.163 215.026 584.194 238.366C483.006 388.234 455.576 534.38 469.291 678.451C528.549 722.28 594.876 755.612 665.388 777C681.265 755.623 695.314 732.945 707.387 709.205C684.457 700.632 662.326 690.055 641.249 677.597C646.796 673.569 652.221 669.42 657.464 665.392C718.792 694.264 785.728 709.234 853.499 709.234C921.271 709.234 988.207 694.264 1049.54 665.392C1054.84 669.725 1060.26 673.874 1065.75 677.597C1044.63 690.075 1022.46 700.673 999.49 709.267C1011.55 732.995 1025.6 755.654 1041.49 777C1112.06 755.698 1178.44 722.381 1237.71 678.512C1253.8 511.436 1210.22 366.633 1122.5 238.244ZM724.759 589.848C686.54 589.848 654.964 555.127 654.964 512.412C654.964 469.697 685.443 434.671 724.638 434.671C763.833 434.671 795.164 469.697 794.494 512.412C793.823 555.127 763.711 589.848 724.759 589.848ZM982.239 589.848C943.959 589.848 912.505 555.127 912.505 512.412C912.505 469.697 942.983 434.671 982.239 434.671C1021.5 434.671 1052.58 469.697 1051.91 512.412C1051.24 555.127 1021.19 589.848 982.239 589.848Z" fill="black"/>
</g>
</g>
<defs>
<clipPath id="clip0_5665_2">
<rect width="1706.67" height="1285.33" fill="white"/>
</clipPath>
<clipPath id="clip1_5665_2">
<rect width="775" height="588" fill="white" transform="translate(466 189)"/>
</clipPath>
</defs>
</svg>
