<svg width="21" height="19" viewBox="0 0 21 19" fill="none" xmlns="http://www.w3.org/2000/svg">
<g clip-path="url(#clip0_1285_182)">
<path d="M20.7686 6.78092C20.7008 6.7238 20.6196 6.68466 20.5326 6.66708C20.4457 6.6495 20.3557 6.65406 20.271 6.68033L19.8263 6.81798C19.5724 6.89888 19.3247 6.99797 19.0851 7.11446C19.6289 5.54944 19.5723 3.83826 18.9262 2.31259L18.7304 1.86258C18.6943 1.77783 18.6368 1.70395 18.5634 1.64824C18.4901 1.59253 18.4034 1.55692 18.3121 1.54493C18.2204 1.53302 18.1272 1.54532 18.0418 1.58061C17.9563 1.61591 17.8816 1.67297 17.825 1.74611L17.5233 2.13259C17.2729 2.46192 17.0582 2.81685 16.8827 3.19144C16.4572 2.09434 15.7506 1.12847 14.8338 0.39079L14.4897 0.11549C14.4214 0.0610437 14.3407 0.0243332 14.2548 0.00862983C14.1689 -0.00707351 14.0804 -0.001283 13.9973 0.0254873C13.9148 0.0526648 13.8403 0.0997203 13.7803 0.162502C13.7203 0.225284 13.6766 0.301865 13.6532 0.385495L13.5314 0.803739C12.8167 3.27614 14.262 5.71149 15.9032 6.92387L16.2738 7.19917H16.3215C16.3975 7.70897 16.5326 8.20821 16.7238 8.68684L16.8033 8.87744C16.0044 9.85188 15.4685 11.0148 15.2468 12.2552L15.2097 12.451C14.2359 12.834 13.3758 13.459 12.7108 14.267L12.5202 14.4999C11.9186 14.4818 11.318 14.5604 10.7414 14.7329L10.482 14.7964L10.2225 14.717C9.64589 14.5445 9.04528 14.4659 8.44367 14.484L8.25308 14.267C7.58326 13.4633 6.71955 12.8438 5.74362 12.4669L5.71715 12.2499C5.49313 11.0217 4.96123 9.87053 4.17123 8.90391L4.25065 8.71332C4.44118 8.23404 4.5779 7.73509 4.6583 7.22564H4.70066L5.07125 6.95034C6.71246 5.73796 8.15778 3.30261 7.44306 0.83021L7.30541 0.39079C7.28198 0.30716 7.23834 0.230578 7.17833 0.167796C7.11831 0.105014 7.04378 0.0579602 6.96129 0.0307827C6.87816 0.00401236 6.78971 -0.00178017 6.7038 0.0139232C6.61789 0.0296265 6.53721 0.066337 6.46893 0.120784L6.1248 0.396084C5.20964 1.13531 4.50338 2.10071 4.07594 3.19673C3.90041 2.82214 3.68567 2.46721 3.43533 2.13789L3.13356 1.75141C3.07706 1.67852 3.0025 1.62166 2.91726 1.58645C2.83202 1.55124 2.73906 1.53891 2.64759 1.55068C2.55612 1.56245 2.46931 1.59791 2.39576 1.65354C2.32221 1.70918 2.26447 1.78306 2.22825 1.86788L2.03237 2.31789C1.38635 3.84356 1.32975 5.55473 1.87354 7.11975C1.63391 7.00326 1.38621 6.90418 1.13235 6.82328L0.687631 6.68563C0.602894 6.65935 0.512914 6.6548 0.425957 6.67237C0.339 6.68995 0.257854 6.7291 0.189973 6.78622C0.121371 6.84353 0.0684001 6.91729 0.0359989 7.00061C0.0035977 7.08392 -0.00717886 7.17409 0.00467509 7.2627L0.0682063 7.718C0.306718 9.32499 1.08091 10.8043 2.26531 11.9163C1.94794 11.931 1.63159 11.9628 1.31764 12.0116L0.83587 12.0857C0.745875 12.0999 0.661067 12.1371 0.589653 12.1937C0.518238 12.2503 0.462632 12.3243 0.428214 12.4087C0.391754 12.4951 0.378913 12.5897 0.391006 12.6827C0.403099 12.7757 0.439692 12.8639 0.497038 12.9381L0.788221 13.3246C1.82239 14.6112 3.31673 15.4447 4.95478 15.6488C4.5488 15.906 4.16615 16.1983 3.81123 16.5223L3.48298 16.8188C3.41569 16.8808 3.36563 16.9592 3.33769 17.0464C3.30974 17.1335 3.30486 17.2264 3.32353 17.316C3.34219 17.4056 3.38377 17.4888 3.44419 17.5576C3.50461 17.6263 3.58182 17.6782 3.66828 17.7082L4.08123 17.8564C4.62785 18.0451 5.20243 18.14 5.78068 18.137C6.99828 18.1068 8.18379 17.7404 9.20604 17.0782L8.72956 18.2641C8.70281 18.3287 8.68912 18.398 8.68929 18.4679C8.68947 18.5379 8.7035 18.6071 8.73057 18.6716C8.75765 18.7361 8.79723 18.7945 8.84703 18.8436C8.89684 18.8927 8.95588 18.9315 9.02075 18.9576C9.08371 18.9801 9.1498 18.9927 9.21663 18.9947C9.32266 18.9948 9.42628 18.9631 9.51407 18.9036C9.60186 18.8441 9.66976 18.7597 9.70899 18.6612L10.482 16.7658L11.2496 18.6665C11.2888 18.765 11.3568 18.8494 11.4445 18.9089C11.5323 18.9684 11.6359 19.0001 11.742 19C11.8088 18.9979 11.8749 18.9854 11.9379 18.9629C12.0027 18.9368 12.0618 18.898 12.1116 18.8489C12.1614 18.7998 12.201 18.7414 12.228 18.6769C12.2551 18.6124 12.2691 18.5432 12.2693 18.4732C12.2695 18.4033 12.2558 18.334 12.229 18.2694L11.7526 17.0835C12.7748 17.7457 13.9603 18.1121 15.1779 18.1423C15.7562 18.1453 16.3308 18.0504 16.8774 17.8617L17.2903 17.7135C17.3768 17.6835 17.454 17.6316 17.5144 17.5629C17.5748 17.4941 17.6164 17.4109 17.6351 17.3213C17.6537 17.2317 17.6489 17.1388 17.6209 17.0517C17.593 16.9645 17.5429 16.8861 17.4756 16.8241L17.1474 16.5276C16.7916 16.2023 16.4071 15.9099 15.9985 15.654C17.6385 15.4514 19.1349 14.6177 20.1704 13.3299L20.4616 12.9434C20.5189 12.8692 20.5555 12.781 20.5676 12.688C20.5797 12.595 20.5669 12.5004 20.5304 12.414C20.496 12.3296 20.4404 12.2556 20.369 12.199C20.2975 12.1424 20.2127 12.1052 20.1227 12.091L19.641 12.0169C19.327 11.9681 19.0107 11.9363 18.6933 11.9216C19.8777 10.8096 20.6519 9.33028 20.8904 7.72329L20.9539 7.26799C20.9677 7.17772 20.9578 7.08542 20.9254 7.00008C20.8929 6.91473 20.8389 6.83924 20.7686 6.78092ZM6.47422 1.4867C6.7654 3.1332 5.88127 4.82206 4.72183 5.83855C4.66268 5.02277 4.79239 4.20434 5.10091 3.44683C5.40942 2.68932 5.88842 2.01314 6.50069 1.47081L6.47422 1.4867ZM2.85297 3.14908C3.28252 3.85697 3.55243 4.65006 3.64387 5.47302C3.73531 6.29598 3.64607 7.12897 3.38239 7.91389C2.94668 7.20849 2.67315 6.41509 2.58159 5.59105C2.49003 4.76701 2.58272 3.93292 2.85297 3.14908ZM1.19588 7.97212C2.04125 8.34479 2.78785 8.90984 3.37613 9.62221C3.96441 10.3346 4.37809 11.1746 4.58418 12.0752C2.77885 11.4822 1.56647 9.67157 1.19588 7.96154V7.97212ZM7.15718 14.6111C5.3942 14.8599 3.24474 14.447 1.9106 13.0228C3.63122 12.8216 5.74891 13.1764 7.15718 14.6111ZM4.90184 16.9723C5.51912 16.4434 6.24032 16.0495 7.01901 15.8161C7.7977 15.5826 8.61663 15.5148 9.42311 15.617C8.27426 16.6176 6.54834 17.3323 4.90184 16.9723ZM11.5408 15.617C13.2297 15.294 14.9132 16.0352 16.0832 16.9723C14.4156 17.3323 12.6896 16.6176 11.5408 15.617ZM18.1109 3.14908C18.3812 3.93292 18.4739 4.76701 18.3823 5.59105C18.2908 6.41509 18.0172 7.20849 17.5815 7.91389C17.3178 7.12897 17.2286 6.29598 17.32 5.47302C17.4115 4.65006 17.6814 3.85697 18.1109 3.14908ZM14.4632 1.4814C15.0685 2.02461 15.5412 2.69935 15.8449 3.45376C16.1487 4.20817 16.2755 5.02219 16.2156 5.83326C15.0562 4.80618 14.1879 3.11732 14.4632 1.47081V1.4814ZM13.8067 14.6111C15.215 13.1764 17.338 12.8216 19.0533 13.0228C17.7192 14.447 15.5697 14.8599 13.8067 14.6111ZM16.3797 12.0646C16.5858 11.164 16.9995 10.324 17.5878 9.61162C18.176 8.89925 18.9226 8.3342 19.768 7.96154C19.3974 9.67157 18.1851 11.4822 16.3797 12.0646Z" fill="black"/>
</g>
<defs>
<clipPath id="clip0_1285_182">
<rect width="21" height="19" fill="white"/>
</clipPath>
</defs>
</svg>
