<svg width="101" height="52" viewBox="0 0 101 52" fill="none" xmlns="http://www.w3.org/2000/svg">
<path d="M1.6875 27V0.818181H12.9886C14.9318 0.818181 16.6321 1.17187 18.0895 1.87926C19.5469 2.58665 20.6804 3.60511 21.4901 4.93466C22.2997 6.2642 22.7045 7.85795 22.7045 9.71591C22.7045 11.5909 22.2869 13.1719 21.4517 14.4588C20.625 15.7457 19.4616 16.7173 17.9616 17.3736C16.4702 18.0298 14.7273 18.358 12.733 18.358H5.98295V12.8352H11.3011C12.1364 12.8352 12.848 12.733 13.4361 12.5284C14.0327 12.3153 14.4886 11.9787 14.804 11.5185C15.1278 11.0582 15.2898 10.4574 15.2898 9.71591C15.2898 8.96591 15.1278 8.35653 14.804 7.88778C14.4886 7.41051 14.0327 7.06108 13.4361 6.83949C12.848 6.60937 12.1364 6.49432 11.3011 6.49432H8.79545V27H1.6875ZM17.0284 14.983L23.5739 27H15.8523L9.46023 14.983H17.0284ZM34.8239 27.358C32.7273 27.358 30.9205 26.9574 29.4034 26.1562C27.8949 25.3466 26.7315 24.1875 25.9134 22.679C25.1037 21.1619 24.6989 19.3466 24.6989 17.233C24.6989 15.2045 25.108 13.4318 25.9261 11.9148C26.7443 10.3977 27.8991 9.21733 29.3906 8.37358C30.8821 7.52983 32.642 7.10795 34.6705 7.10795C36.1534 7.10795 37.4957 7.33807 38.6974 7.7983C39.8991 8.25852 40.9261 8.92756 41.7784 9.8054C42.6307 10.6747 43.2869 11.7315 43.7472 12.9759C44.2074 14.2202 44.4375 15.6222 44.4375 17.1818V18.8182H26.8977V14.9318H37.9432C37.9347 14.3693 37.7898 13.875 37.5085 13.4489C37.2358 13.0142 36.8651 12.6776 36.3963 12.4389C35.9361 12.1918 35.4119 12.0682 34.8239 12.0682C34.2528 12.0682 33.7287 12.1918 33.2514 12.4389C32.7741 12.6776 32.3906 13.0099 32.1009 13.4361C31.8196 13.8622 31.6705 14.3608 31.6534 14.9318V19.125C31.6534 19.7557 31.7855 20.3182 32.0497 20.8125C32.3139 21.3068 32.6932 21.6946 33.1875 21.9759C33.6818 22.2571 34.2784 22.3977 34.9773 22.3977C35.4631 22.3977 35.9063 22.3295 36.3068 22.1932C36.7159 22.0568 37.0653 21.8608 37.3551 21.6051C37.6449 21.3409 37.858 21.0256 37.9943 20.6591H44.4375C44.2159 22.0227 43.6918 23.2074 42.8651 24.2131C42.0384 25.2102 40.9432 25.9858 39.5795 26.5398C38.2244 27.0852 36.6392 27.358 34.8239 27.358ZM52.7887 27.3068C51.5359 27.3068 50.4279 27.1023 49.4648 26.6932C48.5103 26.2756 47.7603 25.6449 47.2148 24.8011C46.6694 23.9574 46.3967 22.8835 46.3967 21.5795C46.3967 20.5057 46.5799 19.5895 46.9464 18.831C47.3129 18.0639 47.8242 17.4375 48.4805 16.9517C49.1367 16.4659 49.8995 16.0952 50.7688 15.8395C51.6467 15.5838 52.5927 15.4176 53.6069 15.3409C54.7063 15.2557 55.5884 15.1534 56.2532 15.0341C56.9265 14.9062 57.4123 14.7315 57.7106 14.5099C58.0089 14.2798 58.158 13.9773 58.158 13.6023V13.5511C58.158 13.0398 57.962 12.6477 57.57 12.375C57.1779 12.1023 56.6751 11.9659 56.0614 11.9659C55.3881 11.9659 54.8384 12.1151 54.4123 12.4134C53.9947 12.7031 53.7433 13.1506 53.658 13.7557H47.1637C47.2489 12.5625 47.6282 11.4631 48.3015 10.4574C48.9833 9.44318 49.9762 8.63352 51.2802 8.02841C52.5842 7.41477 54.212 7.10795 56.1637 7.10795C57.57 7.10795 58.8313 7.27415 59.9478 7.60653C61.0643 7.9304 62.0146 8.38636 62.7987 8.97443C63.5827 9.55398 64.1793 10.2358 64.5884 11.0199C65.006 11.7955 65.2148 12.6392 65.2148 13.5511V27H58.6183V24.2386H58.4648C58.0728 24.9716 57.5955 25.5639 57.033 26.0156C56.479 26.4673 55.8441 26.7955 55.1282 27C54.4208 27.2045 53.641 27.3068 52.7887 27.3068ZM55.0898 22.858C55.6268 22.858 56.1296 22.7472 56.5984 22.5256C57.0756 22.304 57.4634 21.9844 57.7617 21.5668C58.06 21.1491 58.2092 20.642 58.2092 20.0455V18.4091C58.0217 18.4858 57.8214 18.5582 57.6083 18.6264C57.4038 18.6946 57.1822 18.7585 56.9435 18.8182C56.7134 18.8778 56.4663 18.9332 56.2021 18.9844C55.9464 19.0355 55.6779 19.0824 55.3967 19.125C54.8512 19.2102 54.4038 19.3509 54.0543 19.5469C53.7134 19.7344 53.4577 19.9688 53.2873 20.25C53.1254 20.5227 53.0444 20.8295 53.0444 21.1705C53.0444 21.7159 53.2362 22.1335 53.6197 22.4233C54.0032 22.7131 54.4933 22.858 55.0898 22.858ZM75.6435 0.818181V27H68.5866V0.818181H75.6435ZM83.0742 27.4091C82.0856 27.4091 81.2376 27.0639 80.5302 26.3736C79.8313 25.6747 79.4862 24.8267 79.4947 23.8295C79.4862 22.858 79.8313 22.027 80.5302 21.3366C81.2376 20.6463 82.0856 20.3011 83.0742 20.3011C84.0117 20.3011 84.8384 20.6463 85.5543 21.3366C86.2788 22.027 86.6452 22.858 86.6538 23.8295C86.6452 24.4943 86.4705 25.0994 86.1296 25.6449C85.7972 26.1818 85.3626 26.6122 84.8256 26.9361C84.2887 27.2514 83.7049 27.4091 83.0742 27.4091ZM0.9375 36.4545H5.85227L9.23295 44.6932H9.40341L12.7841 36.4545H17.6989V51H13.8352V42.5909H13.7216L10.483 50.8864H8.15341L4.91477 42.5341H4.80114V51H0.9375V36.4545ZM24.8544 51.1989C23.6896 51.1989 22.6858 50.9763 21.843 50.5312C21.005 50.0814 20.3587 49.4375 19.9041 48.5994C19.4543 47.7566 19.2294 46.7481 19.2294 45.5739C19.2294 44.447 19.4567 43.4621 19.9112 42.6193C20.3658 41.7765 21.0073 41.1207 21.8359 40.652C22.6645 40.1832 23.6423 39.9489 24.7692 39.9489C25.593 39.9489 26.3388 40.0767 27.0064 40.3324C27.674 40.5881 28.2446 40.9598 28.718 41.4474C29.1915 41.9304 29.5561 42.5175 29.8118 43.2088C30.0675 43.9001 30.1953 44.679 30.1953 45.5455V46.4545H20.451V44.2955H26.5874C26.5826 43.983 26.5021 43.7083 26.3459 43.4716C26.1944 43.2301 25.9884 43.0431 25.728 42.9105C25.4723 42.7732 25.1811 42.7045 24.8544 42.7045C24.5372 42.7045 24.246 42.7732 23.9808 42.9105C23.7157 43.0431 23.5026 43.2277 23.3416 43.4645C23.1854 43.7012 23.1025 43.9782 23.093 44.2955V46.625C23.093 46.9754 23.1664 47.2879 23.3132 47.5625C23.46 47.8371 23.6707 48.0526 23.9453 48.2088C24.2199 48.3651 24.5514 48.4432 24.9396 48.4432C25.2095 48.4432 25.4557 48.4053 25.6783 48.3295C25.9055 48.2538 26.0997 48.1449 26.2607 48.0028C26.4216 47.8561 26.54 47.6809 26.6158 47.4773H30.1953C30.0722 48.2348 29.781 48.893 29.3217 49.4517C28.8625 50.0057 28.254 50.4366 27.4964 50.7443C26.7436 51.0473 25.8629 51.1989 24.8544 51.1989ZM31.7951 51V40.0909H35.5167V42.1648H35.6303C35.8576 41.483 36.2459 40.9432 36.7951 40.5455C37.3443 40.1477 37.9978 39.9489 38.7553 39.9489C39.5224 39.9489 40.1829 40.1525 40.7369 40.5597C41.2908 40.9621 41.6246 41.4972 41.7383 42.1648H41.8519C42.0366 41.4972 42.4296 40.9621 43.0309 40.5597C43.6322 40.1525 44.3377 39.9489 45.1474 39.9489C46.1938 39.9489 47.0413 40.285 47.69 40.9574C48.3434 41.6297 48.6701 42.5246 48.6701 43.642V51H44.7496V44.6364C44.7496 44.1581 44.6289 43.7841 44.3874 43.5142C44.146 43.2396 43.8216 43.1023 43.4144 43.1023C43.012 43.1023 42.6924 43.2396 42.4556 43.5142C42.2236 43.7841 42.1076 44.1581 42.1076 44.6364V51H38.3576V44.6364C38.3576 44.1581 38.2369 43.7841 37.9954 43.5142C37.7539 43.2396 37.4296 43.1023 37.0224 43.1023C36.7525 43.1023 36.5205 43.1638 36.3263 43.2869C36.1322 43.41 35.9807 43.5876 35.8718 43.8196C35.7676 44.0469 35.7156 44.3191 35.7156 44.6364V51H31.7951ZM55.8594 51.1989C54.6757 51.1989 53.6624 50.9645 52.8196 50.4957C51.9768 50.0223 51.3305 49.3641 50.8807 48.5213C50.4309 47.6738 50.206 46.6913 50.206 45.5739C50.206 44.4564 50.4309 43.4763 50.8807 42.6335C51.3305 41.786 51.9768 41.1278 52.8196 40.6591C53.6624 40.1856 54.6757 39.9489 55.8594 39.9489C57.0431 39.9489 58.0563 40.1856 58.8991 40.6591C59.742 41.1278 60.3883 41.786 60.8381 42.6335C61.2879 43.4763 61.5128 44.4564 61.5128 45.5739C61.5128 46.6913 61.2879 47.6738 60.8381 48.5213C60.3883 49.3641 59.742 50.0223 58.8991 50.4957C58.0563 50.9645 57.0431 51.1989 55.8594 51.1989ZM55.8878 48.3011C56.2192 48.3011 56.5057 48.1899 56.7472 47.9673C56.9886 47.7448 57.1757 47.4276 57.3082 47.0156C57.4408 46.6037 57.5071 46.1136 57.5071 45.5455C57.5071 44.9725 57.4408 44.4825 57.3082 44.0753C57.1757 43.6634 56.9886 43.3461 56.7472 43.1236C56.5057 42.901 56.2192 42.7898 55.8878 42.7898C55.5374 42.7898 55.2367 42.901 54.9858 43.1236C54.7348 43.3461 54.5431 43.6634 54.4105 44.0753C54.2779 44.4825 54.2116 44.9725 54.2116 45.5455C54.2116 46.1136 54.2779 46.6037 54.4105 47.0156C54.5431 47.4276 54.7348 47.7448 54.9858 47.9673C55.2367 48.1899 55.5374 48.3011 55.8878 48.3011ZM63.1037 51V40.0909H66.9105V42.1648H67.0241C67.223 41.3977 67.5379 40.8366 67.9688 40.4815C68.4044 40.1264 68.9134 39.9489 69.4957 39.9489C69.6662 39.9489 69.8343 39.9631 70 39.9915C70.1705 40.0152 70.3338 40.0507 70.4901 40.098V43.4432C70.2959 43.3769 70.0568 43.3272 69.7727 43.294C69.4886 43.2609 69.2448 43.2443 69.0412 43.2443C68.6577 43.2443 68.312 43.3319 68.0043 43.5071C67.7012 43.6776 67.4621 43.919 67.2869 44.2315C67.1117 44.5393 67.0241 44.9015 67.0241 45.3182V51H63.1037ZM71.7756 51V40.0909H75.696V51H71.7756ZM73.7358 38.9545C73.2055 38.9545 72.7509 38.7794 72.3722 38.429C71.9934 38.0786 71.804 37.6572 71.804 37.1648C71.804 36.6723 71.9934 36.2509 72.3722 35.9006C72.7509 35.5502 73.2055 35.375 73.7358 35.375C74.2708 35.375 74.7254 35.5502 75.0994 35.9006C75.4782 36.2509 75.6676 36.6723 75.6676 37.1648C75.6676 37.6572 75.4782 38.0786 75.0994 38.429C74.7254 38.7794 74.2708 38.9545 73.7358 38.9545ZM82.9208 51.1989C81.756 51.1989 80.7522 50.9763 79.9094 50.5312C79.0714 50.0814 78.4251 49.4375 77.9705 48.5994C77.5207 47.7566 77.2958 46.7481 77.2958 45.5739C77.2958 44.447 77.5231 43.4621 77.9776 42.6193C78.4322 41.7765 79.0737 41.1207 79.9023 40.652C80.7309 40.1832 81.7087 39.9489 82.8356 39.9489C83.6594 39.9489 84.4052 40.0767 85.0728 40.3324C85.7404 40.5881 86.311 40.9598 86.7844 41.4474C87.2579 41.9304 87.6225 42.5175 87.8782 43.2088C88.1339 43.9001 88.2617 44.679 88.2617 45.5455V46.4545H78.5174V44.2955H84.6538C84.649 43.983 84.5685 43.7083 84.4123 43.4716C84.2608 43.2301 84.0548 43.0431 83.7944 42.9105C83.5387 42.7732 83.2475 42.7045 82.9208 42.7045C82.6036 42.7045 82.3124 42.7732 82.0472 42.9105C81.7821 43.0431 81.569 43.2277 81.408 43.4645C81.2518 43.7012 81.1689 43.9782 81.1594 44.2955V46.625C81.1594 46.9754 81.2328 47.2879 81.3796 47.5625C81.5264 47.8371 81.7371 48.0526 82.0117 48.2088C82.2863 48.3651 82.6178 48.4432 83.006 48.4432C83.2759 48.4432 83.5221 48.4053 83.7447 48.3295C83.9719 48.2538 84.1661 48.1449 84.3271 48.0028C84.488 47.8561 84.6064 47.6809 84.6822 47.4773H88.2617C88.1386 48.2348 87.8474 48.893 87.3881 49.4517C86.9289 50.0057 86.3204 50.4366 85.5629 50.7443C84.81 51.0473 83.9293 51.1989 82.9208 51.1989ZM99.8331 43.642H96.2251C96.2062 43.4195 96.1281 43.2277 95.9908 43.0668C95.8535 42.9058 95.6759 42.7827 95.4581 42.6974C95.245 42.6075 95.0083 42.5625 94.7479 42.5625C94.4117 42.5625 94.1229 42.6241 93.8814 42.7472C93.6399 42.8703 93.5215 43.0455 93.5263 43.2727C93.5215 43.4337 93.5902 43.5829 93.7322 43.7202C93.879 43.8575 94.1607 43.964 94.5774 44.0398L96.7933 44.4375C97.9107 44.6411 98.7417 44.9844 99.2862 45.4673C99.8355 45.9455 100.112 46.5871 100.117 47.392C100.112 48.1686 99.8804 48.8433 99.4212 49.4162C98.9666 49.9844 98.344 50.4247 97.5533 50.7372C96.7673 51.045 95.87 51.1989 94.8615 51.1989C93.1948 51.1989 91.8904 50.858 90.9482 50.1761C90.0107 49.4943 89.4875 48.5947 89.3786 47.4773H93.2706C93.3227 47.8229 93.4931 48.0904 93.782 48.2798C94.0755 48.4645 94.4448 48.5568 94.8899 48.5568C95.2498 48.5568 95.5457 48.4953 95.7777 48.3722C96.0144 48.2491 96.1352 48.0739 96.1399 47.8466C96.1352 47.6383 96.031 47.4725 95.8274 47.3494C95.6286 47.2263 95.3161 47.1269 94.8899 47.0511L92.9581 46.7102C91.8454 46.5161 91.0121 46.1468 90.4581 45.6023C89.9041 45.0578 89.6295 44.357 89.6342 43.5C89.6295 42.7424 89.8284 42.1009 90.2308 41.5753C90.638 41.045 91.218 40.6425 91.9709 40.3679C92.7285 40.0885 93.6257 39.9489 94.6626 39.9489C96.2393 39.9489 97.4822 40.2756 98.3913 40.929C99.3052 41.5824 99.7857 42.4867 99.8331 43.642Z" fill="#585858"/>
</svg>
