<svg width="1177" height="406" viewBox="0 0 1177 406" fill="none" xmlns="http://www.w3.org/2000/svg">
<path d="M208.317 350.455L299.08 406V77.124H376.249H499L441.823 0H235.106H0L48.7804 77.124H115.954H208.317V350.455Z" fill="#3D3D3D"/>
<path d="M387.6 160V188.4H433.4V214.8H387.6V245.6H439.4V273H353.4V132.6H439.4V160H387.6ZM533.203 273L504.003 220H495.803V273H461.603V132.6H519.003C530.07 132.6 539.47 134.533 547.203 138.4C555.07 142.267 560.936 147.6 564.803 154.4C568.67 161.067 570.603 168.533 570.603 176.8C570.603 186.133 567.936 194.467 562.603 201.8C557.403 209.133 549.67 214.333 539.403 217.4L571.803 273H533.203ZM495.803 195.8H517.003C523.27 195.8 527.936 194.267 531.003 191.2C534.203 188.133 535.803 183.8 535.803 178.2C535.803 172.867 534.203 168.667 531.003 165.6C527.936 162.533 523.27 161 517.003 161H495.803V195.8ZM679.472 248.2H627.072L618.672 273H582.872L633.672 132.6H673.272L724.072 273H687.872L679.472 248.2ZM670.672 221.8L653.272 170.4L636.072 221.8H670.672ZM865.133 273H830.933L773.733 186.4V273H739.533V132.6H773.733L830.933 219.6V132.6H865.133V273ZM983.123 177C980.59 172.333 976.923 168.8 972.123 166.4C967.457 163.867 961.923 162.6 955.523 162.6C944.457 162.6 935.59 166.267 928.923 173.6C922.257 180.8 918.923 190.467 918.923 202.6C918.923 215.533 922.39 225.667 929.323 233C936.39 240.2 946.057 243.8 958.323 243.8C966.723 243.8 973.79 241.667 979.523 237.4C985.39 233.133 989.657 227 992.323 219H948.923V193.8H1023.32V225.6C1020.79 234.133 1016.46 242.067 1010.32 249.4C1004.32 256.733 996.657 262.667 987.323 267.2C977.99 271.733 967.457 274 955.723 274C941.857 274 929.457 271 918.523 265C907.723 258.867 899.257 250.4 893.123 239.6C887.123 228.8 884.123 216.467 884.123 202.6C884.123 188.733 887.123 176.4 893.123 165.6C899.257 154.667 907.723 146.2 918.523 140.2C929.323 134.067 941.657 131 955.523 131C972.323 131 986.457 135.067 997.923 143.2C1009.52 151.333 1017.19 162.6 1020.92 177H983.123ZM1129.67 248.2H1077.27L1068.87 273H1033.07L1083.87 132.6H1123.47L1174.27 273H1138.07L1129.67 248.2ZM1120.87 221.8L1103.47 170.4L1086.27 221.8H1120.87Z" fill="#3D3D3D"/>
</svg>
