<svg width="808" height="64" viewBox="0 0 808 64" fill="none" xmlns="http://www.w3.org/2000/svg">
<g filter="url(#filter0_f_625_33)">
<path d="M25 32H779.516C781.44 32 783 30.4402 783 28.5162V28.5162C783 26.5795 781.421 25.0146 779.484 25.0325L25 32Z" fill="url(#paint0_linear_625_33)" fill-opacity="0.4"/>
</g>
<g filter="url(#filter1_f_625_33)">
<path d="M25 32H779.516C781.44 32 783 33.5598 783 35.4838V35.4838C783 37.4205 781.421 38.9854 779.484 38.9675L25 32Z" fill="url(#paint1_linear_625_33)" fill-opacity="0.4"/>
</g>
<path d="M25 31C25 29.3431 26.3431 28 28 28H779V37H28C26.3432 37 25 35.6569 25 34V31Z" fill="url(#paint2_linear_625_33)"/>
<defs>
<filter id="filter0_f_625_33" x="0.799999" y="0.832226" width="806.4" height="55.3678" filterUnits="userSpaceOnUse" color-interpolation-filters="sRGB">
<feFlood flood-opacity="0" result="BackgroundImageFix"/>
<feBlend mode="normal" in="SourceGraphic" in2="BackgroundImageFix" result="shape"/>
<feGaussianBlur stdDeviation="12.1" result="effect1_foregroundBlur_625_33"/>
</filter>
<filter id="filter1_f_625_33" x="0.799999" y="7.8" width="806.4" height="55.3678" filterUnits="userSpaceOnUse" color-interpolation-filters="sRGB">
<feFlood flood-opacity="0" result="BackgroundImageFix"/>
<feBlend mode="normal" in="SourceGraphic" in2="BackgroundImageFix" result="shape"/>
<feGaussianBlur stdDeviation="12.1" result="effect1_foregroundBlur_625_33"/>
</filter>
<linearGradient id="paint0_linear_625_33" x1="25" y1="28.5" x2="783" y2="28.5" gradientUnits="userSpaceOnUse">
<stop stop-opacity="0"/>
<stop offset="1" stop-color="#006FFF"/>
</linearGradient>
<linearGradient id="paint1_linear_625_33" x1="25" y1="35.5" x2="783" y2="35.5" gradientUnits="userSpaceOnUse">
<stop stop-opacity="0"/>
<stop offset="1" stop-color="#006FFF"/>
</linearGradient>
<linearGradient id="paint2_linear_625_33" x1="25" y1="32.5" x2="779" y2="32.5" gradientUnits="userSpaceOnUse">
<stop stop-color="#29B8FF" stop-opacity="0"/>
<stop offset="1" stop-color="#2998FF"/>
</linearGradient>
</defs>
</svg>
