<svg width="65" height="65" viewBox="0 0 65 65" fill="none" xmlns="http://www.w3.org/2000/svg">
<g clip-path="url(#clip0_1328_199)">
<rect width="65" height="65" fill="#383838"/>
<path d="M30.1687 37.8623L41.3926 24.4862L39.0811 22.5467L27.8572 35.9227L30.1687 37.8623Z" fill="black"/>
<path d="M41.3926 24.4863L52.6165 11.1102L50.305 9.17068L39.0811 22.5468L41.3926 24.4863Z" fill="#0019FF"/>
<path d="M41.5412 24.6468L52.9968 11.4686L50.7196 9.48903L39.264 22.6672L41.5412 24.6468Z" fill="#0015FF"/>
<path d="M41.687 24.81L53.3708 11.8337L51.1285 9.8147L39.4446 22.7909L41.687 24.81Z" fill="#0011FF"/>
<path d="M41.83 24.9757L53.7385 12.2053L51.5317 10.1475L39.6232 22.9178L41.83 24.9757Z" fill="#000CFF"/>
<path d="M41.97 25.1437L54.0996 12.5831L51.9291 10.4871L39.7995 23.0476L41.97 25.1437Z" fill="#0008FF"/>
<path d="M42.107 25.3142L54.454 12.9673L52.3203 10.8337L39.9734 23.1806L42.107 25.3142Z" fill="#0004FF"/>
<path d="M42.2411 25.4871L54.8016 13.3575L52.7056 11.187L40.145 23.3166L42.2411 25.4871Z" fill="#0000FF"/>
<path d="M42.3721 25.6624L55.1425 13.7539L53.0846 11.5471L40.3143 23.4556L42.3721 25.6624Z" fill="#0500FF"/>
<path d="M42.5001 25.8398L55.4763 14.156L53.4573 11.9136L40.4811 23.5975L42.5001 25.8398Z" fill="#0900FF"/>
<path d="M42.6249 26.0196L55.8031 14.564L53.8235 12.2867L40.6453 23.7423L42.6249 26.0196Z" fill="#0D00FF"/>
<path d="M42.7466 26.2014L56.1227 14.9775L54.1831 12.6661L40.807 23.8899L42.7466 26.2014Z" fill="#1100FF"/>
<path d="M42.8651 26.3853L56.4351 15.3966L54.5361 13.0516L40.9662 24.0403L42.8651 26.3853Z" fill="#1600FF"/>
<path d="M42.9804 26.5713L56.74 15.821L54.8823 13.4433L41.1226 24.1935L42.9804 26.5713Z" fill="#1A00FF"/>
<path d="M43.0924 26.7593L57.0376 16.2509L55.2217 13.841L41.2765 24.3495L43.0924 26.7593Z" fill="#1E00FF"/>
<path d="M43.2011 26.9491L57.3275 16.6857L55.5539 14.2445L41.4275 24.508L43.2011 26.9491Z" fill="#2200FF"/>
<path d="M43.3065 27.1408L57.6099 17.1255L55.8791 14.6538L41.5757 24.6691L43.3065 27.1408Z" fill="#2700FF"/>
<path d="M43.4085 27.3345L57.8845 17.5703L56.1972 15.0688L41.7212 24.833L43.4085 27.3345Z" fill="#2B00FF"/>
<path d="M43.507 27.5297L58.1512 18.0197L56.5078 15.489L41.8636 24.9991L43.507 27.5297Z" fill="#2F00FF"/>
<path d="M43.6023 27.7268L58.4103 18.4738L56.8113 15.9148L42.0033 25.1679L43.6023 27.7268Z" fill="#3300FF"/>
<path d="M43.6941 27.9254L58.6613 18.9323L57.1072 16.3458L42.14 25.339L43.6941 27.9254Z" fill="#3800FF"/>
<path d="M43.7823 28.1256L58.9042 19.395L57.3955 16.7819L42.2736 25.5125L43.7823 28.1256Z" fill="#3C00FF"/>
<path d="M43.867 28.3273L59.1389 19.8619L57.676 17.2229L42.4041 25.6882L43.867 28.3273Z" fill="#4000FF"/>
<path d="M43.9482 28.5304L59.3656 20.3329L57.949 17.6687L42.5317 25.8662L43.9482 28.5304Z" fill="#4400FF"/>
<path d="M44.0259 28.735L59.584 20.8077L58.2141 18.1192L42.656 26.0464L44.0259 28.735Z" fill="#4800FF"/>
<path d="M44.1 28.9409L59.7941 21.2864L58.4713 18.5743L42.7773 26.2288L44.1 28.9409Z" fill="#4D00FF"/>
<path d="M44.1705 29.148L59.9957 21.7686L58.7205 19.0339L42.8953 26.4133L44.1705 29.148Z" fill="#5100FF"/>
<path d="M44.2373 29.3564L60.189 22.2543L58.9617 19.4977L43.01 26.5999L44.2373 29.3564Z" fill="#5500FF"/>
<path d="M44.3005 29.5658L60.3737 22.7432L59.1947 19.9656L43.1215 26.7883L44.3005 29.5658Z" fill="#5900FF"/>
<path d="M44.36 29.7763L60.5498 23.2352L59.4195 20.4375L43.2297 26.9786L44.36 29.7763Z" fill="#5E00FF"/>
<path d="M44.4158 29.9879L60.7173 23.7303L59.6359 20.9134L43.3345 27.1709L44.4158 29.9879Z" fill="#6200FF"/>
<path d="M44.468 30.2004L60.8762 24.2283L59.8442 21.3928L43.436 27.3649L44.468 30.2004Z" fill="#6600FF"/>
<path d="M44.5164 30.4138L61.0264 24.729L60.044 21.876L43.5341 27.5608L44.5164 30.4138Z" fill="#6A00FF"/>
<path d="M44.5611 30.628L61.1677 25.2322L60.2353 22.3624L43.6287 27.7583L44.5611 30.628Z" fill="#6F00FF"/>
<path d="M44.6022 30.8428L61.3004 25.7377L60.4182 22.8521L43.72 27.9573L44.6022 30.8428Z" fill="#7300FF"/>
<path d="M44.6394 31.0585L61.4242 26.2455L60.5925 23.345L43.8077 28.1579L44.6394 31.0585Z" fill="#7700FF"/>
<path d="M44.6728 31.2747L61.5391 26.7554L60.7581 23.8408L43.8918 28.3601L44.6728 31.2747Z" fill="#7B00FF"/>
<path d="M44.7025 31.4915L61.645 27.2672L60.915 24.3394L43.9725 28.5637L44.7025 31.4915Z" fill="#8000FF"/>
<path d="M44.7282 31.7087L61.7419 27.7808L61.0632 24.8407L44.0495 28.7686L44.7282 31.7087Z" fill="#8400FF"/>
<path d="M44.7504 31.9264L61.8301 28.296L61.2027 25.3445L44.1231 28.9749L44.7504 31.9264Z" fill="#8800FF"/>
<path d="M44.7686 32.1445L61.9091 28.8127L61.3333 25.8508L44.1929 29.1825L44.7686 32.1445Z" fill="#8C00FF"/>
<path d="M44.783 32.3628L61.979 29.3307L61.455 26.3591L44.2591 29.3912L44.783 32.3628Z" fill="#9100FF"/>
<path d="M44.7938 32.5813L62.04 29.8497L61.568 26.8695L44.3218 29.601L44.7938 32.5813Z" fill="#9500FF"/>
<path d="M44.8006 32.8L62.0919 30.3699L61.672 27.3818L44.3807 29.812L44.8006 32.8Z" fill="#9900FF"/>
<path d="M44.8036 33.0187L62.1346 30.8907L61.7669 27.8958L44.4358 30.0238L44.8036 33.0187Z" fill="#9D00FF"/>
<path d="M44.8028 33.2375L62.1683 31.4124L61.8529 28.4115L44.4874 30.2367L44.8028 33.2375Z" fill="#A100FF"/>
<path d="M44.7982 33.4563L62.193 31.9344L61.93 28.9285L44.5352 30.4504L44.7982 33.4563Z" fill="#A600FF"/>
<path d="M44.7897 33.6749L62.2084 32.4569L61.9979 29.4468L44.5792 30.6649L44.7897 33.6749Z" fill="#AA00FF"/>
<path d="M44.7774 33.8933L62.2147 32.9795L62.0568 29.9662L44.6195 30.8801L44.7774 33.8933Z" fill="#AE00FF"/>
<path d="M44.7614 34.1116L62.212 33.5022L62.1067 30.4866L44.6561 31.096L44.7614 34.1116Z" fill="#B200FF"/>
<path d="M44.7415 34.3295L62.2001 34.0248L62.1474 31.0078L44.6888 31.3126L44.7415 34.3295Z" fill="#B700FF"/>
<path d="M44.7178 34.547H62.1791V31.5296H44.7178V34.547Z" fill="#BB00FF"/>
<path d="M44.6904 34.7641L62.1489 35.0688L62.2016 32.0519L44.743 31.7472L44.6904 34.7641Z" fill="#BF00FF"/>
<path d="M44.6591 34.9806L62.1097 35.59L62.215 32.5744L44.7645 31.965L44.6591 34.9806Z" fill="#C300FF"/>
<path d="M44.6241 35.1966L62.0614 36.1105L62.2193 33.0972L44.782 32.1833L44.6241 35.1966Z" fill="#C800FF"/>
<path d="M44.5853 35.4118L62.004 36.6299L62.2145 33.6198L44.7958 32.4018L44.5853 35.4118Z" fill="#CC00FF"/>
<path d="M44.5428 35.6265L61.9376 37.1483L62.2006 34.1424L44.8058 32.6205L44.5428 35.6265Z" fill="#D000FF"/>
<path d="M44.4965 35.8403L61.8621 37.6655L62.1775 34.6646L44.8119 32.8395L44.4965 35.8403Z" fill="#D400FF"/>
<path d="M44.4465 36.0534L61.7776 38.1814L62.1453 35.1865L44.8142 33.0585L44.4465 36.0534Z" fill="#D900FF"/>
<path d="M44.3928 36.2654L61.6841 38.6956L62.104 35.7075L44.8127 33.2774L44.3928 36.2654Z" fill="#DD00FF"/>
<path d="M44.3354 36.4766L61.5817 39.2081L62.0537 36.2279L44.8074 33.4963L44.3354 36.4766Z" fill="#E100FF"/>
<path d="M44.2744 36.6866L61.4703 39.7188L61.9943 36.7472L44.7983 33.7151L44.2744 36.6866Z" fill="#E500FF"/>
<path d="M44.2096 36.8957L61.35 40.2274L61.9257 37.2654L44.7853 33.9337L44.2096 36.8957Z" fill="#EA00FF"/>
<path d="M44.1413 37.1035L61.2209 40.7339L61.8483 37.7824L44.7686 34.152L44.1413 37.1035Z" fill="#EE00FF"/>
<path d="M44.0693 37.3101L61.083 41.238L61.7618 38.298L44.7481 34.37L44.0693 37.3101Z" fill="#F200FF"/>
<path d="M43.9937 37.5155L60.9363 41.7397L61.6663 38.812L44.7237 34.5877L43.9937 37.5155Z" fill="#F600FF"/>
<path d="M43.9145 37.7195L60.7808 42.2388L61.5617 39.3242L44.6955 34.8049L43.9145 37.7195Z" fill="#FA00FF"/>
<path d="M43.8318 37.922L60.6166 42.735L61.4483 39.8345L44.6635 35.0215L43.8318 37.922Z" fill="#FF00FF"/>
<path d="M43.7456 38.1231L60.4438 43.2283L61.3261 40.3427L44.6278 35.2375L43.7456 38.1231Z" fill="#FF00FB"/>
<path d="M43.6558 38.3227L60.2625 43.7185L61.1949 40.8488L44.5883 35.453L43.6558 38.3227Z" fill="#FF00F7"/>
<path d="M43.5626 38.5206L60.0725 44.2054L61.0549 41.3524L44.545 35.6676L43.5626 38.5206Z" fill="#FF00F3"/>
<path d="M43.466 38.7169L59.8741 44.689L60.9062 41.8535L44.498 35.8814L43.466 38.7169Z" fill="#FF00EE"/>
<path d="M43.366 38.9115L59.6675 45.1691L60.7488 42.3521L44.4474 36.0945L43.366 38.9115Z" fill="#FF00EA"/>
<path d="M43.2625 39.1043L59.4523 45.6454L60.5826 42.8477L44.3928 36.3066L43.2625 39.1043Z" fill="#FF00E6"/>
<path d="M43.1557 39.2953L59.2289 46.1179L60.4079 43.3404L44.3347 36.5177L43.1557 39.2953Z" fill="#FF00E2"/>
<path d="M43.0457 39.4843L58.9973 46.5864L60.2246 43.8299L44.273 36.7278L43.0457 39.4843Z" fill="#FF00DD"/>
<path d="M42.9323 39.6715L58.7576 47.0509L60.0328 44.3162L44.2075 36.9368L42.9323 39.6715Z" fill="#FF00D9"/>
<path d="M42.8157 39.8566L58.5098 47.5111L59.8325 44.7991L44.1385 37.1446L42.8157 39.8566Z" fill="#FF00D5"/>
<path d="M42.6958 40.0397L58.2539 47.9669L59.6238 45.2784L44.0657 37.3512L42.6958 40.0397Z" fill="#FF00D1"/>
<path d="M42.5729 40.2205L57.9902 48.4181L59.4068 45.7539L43.9895 37.5563L42.5729 40.2205Z" fill="#FF00CC"/>
<path d="M42.4467 40.3994L57.7186 48.8647L59.1815 46.2257L43.9096 37.7603L42.4467 40.3994Z" fill="#FF00C8"/>
<path d="M42.3175 40.5759L57.4393 49.3065L58.948 46.6934L43.8262 37.9627L42.3175 40.5759Z" fill="#FF00C4"/>
<path d="M42.1851 40.7501L57.1523 49.7433L58.7064 47.1569L43.7392 38.1637L42.1851 40.7501Z" fill="#FF00C0"/>
<path d="M42.0498 40.922L56.8578 50.175L58.4568 47.6161L43.6488 38.3631L42.0498 40.922Z" fill="#FF00BB"/>
<path d="M41.9114 41.0916L56.5557 50.6017L58.1991 48.0711L43.5548 38.561L41.9114 41.0916Z" fill="#FF00B7"/>
<path d="M41.7702 41.2586L56.2462 51.0228L57.9335 48.5213L43.4575 38.7571L41.7702 41.2586Z" fill="#FF00B3"/>
<path d="M41.626 41.4232L55.9294 51.4386L57.6602 48.9669L43.3568 38.9515L41.626 41.4232Z" fill="#FF00AF"/>
<path d="M41.479 41.5853L55.6055 51.8488L57.3791 49.4076L43.2526 39.1442L41.479 41.5853Z" fill="#FF00AB"/>
<path d="M41.3293 41.7447L55.2744 52.2532L57.0903 49.8434L43.1452 39.3349L41.3293 41.7447Z" fill="#FF00A6"/>
<path d="M41.1766 41.9016L54.9363 52.6519L56.794 50.2741L43.0343 39.5239L41.1766 41.9016Z" fill="#FF00A2"/>
<path d="M41.0214 42.0557L54.5913 53.0444L56.4902 50.6995L42.9203 39.7108L41.0214 42.0557Z" fill="#FF009E"/>
<path d="M40.8634 42.2072L54.2395 53.431L56.1791 51.1196L42.803 39.8957L40.8634 42.2072Z" fill="#FF009A"/>
<path d="M40.7029 42.3558L53.8811 53.8114L55.8607 51.5341L42.6825 40.0785L40.7029 42.3558Z" fill="#FF0095"/>
<path d="M40.5398 42.5016L53.516 54.1854L55.535 51.9431L42.5588 40.2592L40.5398 42.5016Z" fill="#FF0091"/>
<path d="M40.3741 42.6446L53.1444 54.5531L55.2023 52.3463L42.4319 40.4378L40.3741 42.6446Z" fill="#FF008D"/>
<path d="M40.206 42.7846L52.7666 54.9142L54.8627 52.7436L42.3021 40.6141L40.206 42.7846Z" fill="#FF0089"/>
<path d="M40.0355 42.9216L52.3824 55.2686L54.5161 53.1349L42.1691 40.788L40.0355 42.9216Z" fill="#FF0084"/>
<path d="M39.8626 43.0557L51.9922 55.6162L54.1627 53.5201L42.0331 40.9596L39.8626 43.0557Z" fill="#FF0080"/>
<path d="M39.6873 43.1867L51.5958 55.957L53.8026 53.8992L41.8941 41.1288L39.6873 43.1867Z" fill="#FF007C"/>
<path d="M39.5099 43.3147L51.1937 56.2909L53.4361 54.2719L41.7523 41.2956L39.5099 43.3147Z" fill="#FF0078"/>
<path d="M39.3302 43.4395L50.7858 56.6177L53.063 54.6381L41.6074 41.4599L39.3302 43.4395Z" fill="#FF0073"/>
<path d="M39.1483 43.5612L50.3722 56.9373L52.6837 54.9977L41.4598 41.6216L39.1483 43.5612Z" fill="#FF006F"/>
<path d="M38.9644 43.6797L49.9531 57.2496L52.2981 55.3507L41.3094 41.7808L38.9644 43.6797Z" fill="#FF006B"/>
<path d="M38.7785 43.7949L49.5287 57.5546L51.9064 55.6969L41.1562 41.9372L38.7785 43.7949Z" fill="#FF0067"/>
<path d="M38.5904 43.9069L49.0989 57.8521L51.5087 56.0361L41.0003 42.091L38.5904 43.9069Z" fill="#FF0062"/>
<path d="M38.4006 44.0157L48.6641 58.1421L51.1052 56.3685L40.8417 42.2421L38.4006 44.0157Z" fill="#FF005E"/>
<path d="M38.2089 44.121L48.2242 58.4244L50.696 56.6937L40.6806 42.3903L38.2089 44.121Z" fill="#FF005A"/>
<path d="M38.0152 44.223L47.7794 58.699L50.281 57.0117L40.5168 42.5356L38.0152 44.223Z" fill="#FF0056"/>
<path d="M37.82 44.3216L47.3301 58.9658L49.8607 57.3224L40.3506 42.6782L37.82 44.3216Z" fill="#FF0052"/>
<path d="M37.6229 44.4168L46.876 59.2247L49.4349 57.6257L40.1818 42.8178L37.6229 44.4168Z" fill="#FF004D"/>
<path d="M37.4243 44.5085L46.4175 59.4757L49.0039 57.9216L40.0107 42.9544L37.4243 44.5085Z" fill="#FF0049"/>
<path d="M37.2241 44.5968L45.9547 59.7186L48.5679 58.2099L39.8373 43.0881L37.2241 44.5968Z" fill="#FF0045"/>
<path d="M37.0224 44.6816L45.4878 59.9535L48.1269 58.4906L39.6615 43.2187L37.0224 44.6816Z" fill="#FF0041"/>
<path d="M36.8193 44.7628L45.0168 60.1802L47.6811 58.7636L39.4835 43.3462L36.8193 44.7628Z" fill="#FF003C"/>
<path d="M36.6148 44.8405L44.542 60.3986L47.2305 59.0287L39.3033 43.4706L36.6148 44.8405Z" fill="#FF0038"/>
<path d="M36.4089 44.9145L44.0634 60.6085L46.7754 59.2858L39.1209 43.5917L36.4089 44.9145Z" fill="#FF0034"/>
<path d="M36.2017 44.9849L43.5812 60.8102L46.3159 59.535L38.9364 43.7097L36.2017 44.9849Z" fill="#FF0030"/>
<path d="M35.9933 45.0518L43.0955 61.0034L45.852 59.7761L38.7499 43.8245L35.9933 45.0518Z" fill="#FF002B"/>
<path d="M35.7839 45.1151L42.6066 61.1882L45.3841 60.0092L38.5615 43.9361L35.7839 45.1151Z" fill="#FF0027"/>
<path d="M35.5734 45.1746L42.1145 61.3644L44.9122 60.234L38.3711 44.0443L35.5734 45.1746Z" fill="#FF0023"/>
<path d="M35.3618 45.2304L41.6194 61.5319L44.4364 60.4505L38.1788 44.1491L35.3618 45.2304Z" fill="#FF001F"/>
<path d="M35.1494 45.2826L41.1215 61.6908L43.9569 60.6588L37.9848 44.2506L35.1494 45.2826Z" fill="#FF001A"/>
<path d="M34.9359 45.331L40.6207 61.8409L43.4737 60.8586L37.7889 44.3487L34.9359 45.331Z" fill="#FF0016"/>
<path d="M34.7217 45.3757L40.1176 61.9823L42.9873 61.0499L37.5915 44.4433L34.7217 45.3757Z" fill="#FF0012"/>
<path d="M34.5069 45.4167L39.6121 62.115L42.4976 61.2328L37.3925 44.5345L34.5069 45.4167Z" fill="#FF000E"/>
<path d="M34.2913 45.4538L39.1042 62.2386L42.0048 61.4069L37.1918 44.6221L34.2913 45.4538Z" fill="#FF0009"/>
<path d="M34.0751 45.4873L38.5944 62.3535L41.509 61.5726L36.9897 44.7063L34.0751 45.4873Z" fill="#FF0005"/>
<path d="M33.8583 45.5169L38.0825 62.4595L41.0103 61.7295L36.786 44.7869L33.8583 45.5169Z" fill="#FF0001"/>
<path d="M33.641 45.5428L37.569 62.5565L40.509 61.8777L36.5811 44.864L33.641 45.5428Z" fill="#FF0300"/>
<path d="M33.4233 45.5649L37.0537 62.6445L40.0052 62.0172L36.3748 44.9375L33.4233 45.5649Z" fill="#FF0700"/>
<path d="M33.2052 45.5832L36.537 62.7236L39.499 62.1479L36.1672 45.0075L33.2052 45.5832Z" fill="#FF0C00"/>
<path d="M32.9869 45.5976L36.019 62.7936L38.9906 62.2696L35.9585 45.0737L32.9869 45.5976Z" fill="#FF1000"/>
<path d="M32.7685 45.6082L35.5 62.8545L38.4803 62.3825L35.7487 45.1362L32.7685 45.6082Z" fill="#FF1400"/>
<path d="M32.5497 45.6151L34.9799 62.9064L37.9679 62.4864L35.5378 45.1951L32.5497 45.6151Z" fill="#FF1800"/>
<path d="M32.331 45.6181L34.459 62.9492L37.4539 62.5815L35.3259 45.2504L32.331 45.6181Z" fill="#FF1D00"/>
<path d="M32.1122 45.6173L33.9374 62.9829L36.9383 62.6675L35.1131 45.3019L32.1122 45.6173Z" fill="#FF2100"/>
<path d="M31.8934 45.6127L33.4153 63.0074L36.4212 62.7445L34.8994 45.3497L31.8934 45.6127Z" fill="#FF2500"/>
<path d="M31.6748 45.6043L32.8928 63.0229L35.9029 62.8125L34.6848 45.3938L31.6748 45.6043Z" fill="#FF2900"/>
<path d="M31.4564 45.592L32.3702 63.0293L35.3835 62.8714L34.4697 45.4341L31.4564 45.592Z" fill="#FF2E00"/>
<path d="M31.2381 45.5759L31.8475 63.0265L34.8631 62.9212L34.2537 45.4706L31.2381 45.5759Z" fill="#FF3200"/>
<path d="M31.0202 45.5561L31.325 63.0146L34.3419 62.962L34.0372 45.5034L31.0202 45.5561Z" fill="#FF3600"/>
<path d="M30.8027 45.5324V62.9937H33.8201V45.5324H30.8027Z" fill="#FF3A00"/>
<path d="M30.5856 45.5049L30.2809 62.9635L33.2978 63.0162L33.6026 45.5576L30.5856 45.5049Z" fill="#FF3F00"/>
<path d="M30.3692 45.4737L29.7598 62.9243L32.7753 63.0296L33.3847 45.579L30.3692 45.4737Z" fill="#FF4300"/>
<path d="M30.1531 45.4387L29.2393 62.876L32.2525 63.0339L33.1664 45.5966L30.1531 45.4387Z" fill="#FF4700"/>
<path d="M29.9379 45.3999L28.7198 62.8186L31.7299 63.0291L32.9479 45.6104L29.9379 45.3999Z" fill="#FF4B00"/>
<path d="M29.7233 45.3574L28.2014 62.7522L31.2073 63.0152L32.7292 45.6204L29.7233 45.3574Z" fill="#FF5000"/>
<path d="M29.5094 45.3111L27.6842 62.6766L30.6851 62.992L32.5103 45.6265L29.5094 45.3111Z" fill="#FF5400"/>
<path d="M29.2963 45.2611L27.1683 62.5922L30.1633 62.9599L32.2912 45.6288L29.2963 45.2611Z" fill="#FF5800"/>
<path d="M29.0843 45.2074L26.6542 62.4987L29.6422 62.9186L32.0724 45.6273L29.0843 45.2074Z" fill="#FF5C00"/>
<path d="M28.8731 45.15L26.1416 62.3962L29.1219 62.8683L31.8534 45.622L28.8731 45.15Z" fill="#FF6000"/>
<path d="M28.6631 45.089L25.631 62.2849L28.6026 62.8089L31.6347 45.6129L28.6631 45.089Z" fill="#FF6500"/>
<path d="M28.4541 45.0241L25.1223 62.1646L28.0843 62.7403L31.416 45.5999L28.4541 45.0241Z" fill="#FF6900"/>
<path d="M28.2462 44.9557L24.6158 62.0354L27.5673 62.6628L31.1977 45.5831L28.2462 44.9557Z" fill="#FF6D00"/>
<path d="M28.0396 44.8838L24.1117 61.8975L27.0518 62.5762L30.9797 45.5625L28.0396 44.8838Z" fill="#FF7100"/>
<path d="M27.8342 44.8082L23.61 61.7507L26.5378 62.4807L30.762 45.5382L27.8342 44.8082Z" fill="#FF7600"/>
<path d="M27.6303 44.7291L23.111 61.5953L26.0256 62.3763L30.5449 45.51L27.6303 44.7291Z" fill="#FF7A00"/>
<path d="M27.4277 44.6463L22.6147 61.4312L25.5153 62.2629L30.3282 45.4781L27.4277 44.6463Z" fill="#FF7E00"/>
<path d="M27.2266 44.5602L22.1215 61.2584L25.007 62.1406L30.1122 45.4424L27.2266 44.5602Z" fill="#FF8200"/>
<path d="M27.027 44.4704L21.6312 61.077L24.501 62.0095L29.8968 45.4028L27.027 44.4704Z" fill="#FF8700"/>
<path d="M26.8291 44.3772L21.1443 60.8871L23.9973 61.8695L29.6821 45.3595L26.8291 44.3772Z" fill="#FF8B00"/>
<path d="M26.6329 44.2805L20.6608 60.6887L23.4962 61.7207L29.4683 45.3125L26.6329 44.2805Z" fill="#FF8F00"/>
<path d="M26.4382 44.1805L20.1807 60.4819L22.9977 61.5633L29.2552 45.2618L26.4382 44.1805Z" fill="#FF9300"/>
<path d="M26.2454 44.0771L19.7043 60.2668L22.502 61.3972L29.0431 45.2074L26.2454 44.0771Z" fill="#FF9800"/>
<path d="M26.0545 43.9703L19.2318 60.0435L22.0094 61.2225L28.832 45.1493L26.0545 43.9703Z" fill="#FF9C00"/>
<path d="M25.8654 43.8603L18.7633 59.8119L21.5198 61.0392L28.622 45.0876L25.8654 43.8603Z" fill="#FFA000"/>
<path d="M25.6783 43.7469L18.2988 59.5721L21.0335 60.8474L28.413 45.0221L25.6783 43.7469Z" fill="#FFA400"/>
<path d="M25.4931 43.6302L17.8386 59.3242L20.5507 60.647L28.2052 44.9529L25.4931 43.6302Z" fill="#FFA900"/>
<path d="M25.31 43.5104L17.3828 59.0685L20.0713 60.4384L27.9986 44.8803L25.31 43.5104Z" fill="#FFAD00"/>
<path d="M25.1292 43.3873L16.9316 58.8047L19.5959 60.2213L27.7934 44.8039L25.1292 43.3873Z" fill="#FFB100"/>
<path d="M24.9504 43.2613L16.485 58.5332L19.1241 59.9961L27.5894 44.7241L24.9504 43.2613Z" fill="#FFB500"/>
<path d="M24.7738 43.1319L16.0432 58.2538L18.6564 59.7625L27.387 44.6406L24.7738 43.1319Z" fill="#FFB900"/>
<path d="M24.5996 42.9996L15.6064 57.9668L18.1929 59.5209L27.1861 44.5537L24.5996 42.9996Z" fill="#FFBE00"/>
<path d="M24.4277 42.8643L15.1747 57.6722L17.7336 59.2712L26.9866 44.4633L24.4277 42.8643Z" fill="#FFC200"/>
<path d="M24.2581 42.726L14.748 57.3702L17.2787 59.0136L26.7887 44.3694L24.2581 42.726Z" fill="#FFC600"/>
<path d="M24.0911 42.5848L14.3269 57.0608L16.8285 58.7481L26.5926 44.2721L24.0911 42.5848Z" fill="#FFCA00"/>
<path d="M23.9265 42.4406L13.9111 56.744L16.3829 58.4747L26.3982 44.1713L23.9265 42.4406Z" fill="#FFCF00"/>
<path d="M23.7644 42.2936L13.501 56.42L15.9421 58.1936L26.2056 44.0672L23.7644 42.2936Z" fill="#FFD300"/>
<path d="M23.605 42.1438L13.0966 56.089L15.5064 57.9049L26.0148 43.9598L23.605 42.1438Z" fill="#FFD700"/>
<path d="M23.4481 41.9912L12.6979 55.7509L15.0756 57.6086L25.8258 43.8489L23.4481 41.9912Z" fill="#FFDB00"/>
<path d="M23.294 41.836L12.3053 55.4059L14.6503 57.3048L25.639 43.7349L23.294 41.836Z" fill="#FFE000"/>
<path d="M23.1426 41.678L11.9187 55.0541L14.2302 56.9936L25.454 43.6176L23.1426 41.678Z" fill="#FFE400"/>
<path d="M22.9939 41.5174L11.5383 54.6956L13.8156 56.6752L25.2712 43.497L22.9939 41.5174Z" fill="#FFE800"/>
<path d="M22.8482 41.3543L11.1643 54.3306L13.4067 56.3496L25.0905 43.3734L22.8482 41.3543Z" fill="#FFEC00"/>
<path d="M22.7052 41.1886L10.7966 53.959L13.0034 56.0169L24.912 43.2465L22.7052 41.1886Z" fill="#FFF100"/>
<path d="M22.5651 41.0205L10.4355 53.5811L12.6061 55.6771L24.7357 43.1166L22.5651 41.0205Z" fill="#FFF500"/>
<path d="M22.4281 40.8501L10.0812 53.197L12.2148 55.3307L24.5618 42.9837L22.4281 40.8501Z" fill="#FFF900"/>
<path d="M22.2941 40.677L9.73352 52.8066L11.8296 54.9772L24.3901 42.8476L22.2941 40.677Z" fill="#FFFD00"/>
<path d="M22.163 40.5019L9.3927 52.4104L11.4506 54.6172L24.2209 42.7087L22.163 40.5019Z" fill="#FCFF00"/>
<path d="M22.0351 40.3245L9.05884 52.0083L11.0779 54.2507L24.0541 42.5668L22.0351 40.3245Z" fill="#F8FF00"/>
<path d="M21.9102 40.1447L8.73206 51.6003L10.7117 53.8776L23.8898 42.422L21.9102 40.1447Z" fill="#F4FF00"/>
<path d="M21.7886 39.9629L8.41248 51.1868L10.352 53.4982L23.7281 42.2744L21.7886 39.9629Z" fill="#F0FF00"/>
<path d="M21.67 39.779L8.1001 50.7677L9.99902 53.1127L23.5689 42.124L21.67 39.779Z" fill="#ECFF00"/>
<path d="M21.5548 39.5929L7.79517 50.3431L9.65287 52.7209L23.4125 41.9707L21.5548 39.5929Z" fill="#E7FF00"/>
<path d="M21.4428 39.405L7.49768 49.9135L9.3136 52.3233L23.2588 41.8148L21.4428 39.405Z" fill="#E3FF00"/>
<path d="M21.3341 39.2152L7.20764 49.4786L8.98123 51.9198L23.1077 41.6563L21.3341 39.2152Z" fill="#DFFF00"/>
<path d="M21.2287 39.0233L6.92529 49.0387L8.65601 51.5104L22.9594 41.4951L21.2287 39.0233Z" fill="#DBFF00"/>
<path d="M21.1268 38.8298L6.65076 48.594L8.33807 51.0955L22.8141 41.3313L21.1268 38.8298Z" fill="#D6FF00"/>
<path d="M21.0281 38.6345L6.38391 48.1445L8.02731 50.6751L22.6715 41.1651L21.0281 38.6345Z" fill="#D2FF00"/>
<path d="M20.933 38.4375L6.125 47.6906L7.72398 50.2495L22.5319 40.9964L20.933 38.4375Z" fill="#CEFF00"/>
<path d="M20.8412 38.2389L5.87402 47.2321L7.4281 49.8185L22.3953 40.8253L20.8412 38.2389Z" fill="#CAFF00"/>
<path d="M20.753 38.0387L5.6311 46.7693L7.13981 49.3824L22.2617 40.6518L20.753 38.0387Z" fill="#C5FF00"/>
<path d="M20.6682 37.837L5.39624 46.3024L6.85911 48.9415L22.131 40.4761L20.6682 37.837Z" fill="#C1FF00"/>
<path d="M20.5869 37.6337L5.16956 45.8313L6.58614 48.4955L22.0035 40.298L20.5869 37.6337Z" fill="#BDFF00"/>
<path d="M20.5092 37.4292L4.95117 45.3564L6.32105 48.045L21.8791 40.1177L20.5092 37.4292Z" fill="#B9FF00"/>
<path d="M20.4353 37.2234L4.74121 44.8779L6.06396 47.59L21.758 39.9355L20.4353 37.2234Z" fill="#B4FF00"/>
<path d="M20.3648 37.0162L4.53955 44.3956L5.81476 47.1303L21.64 39.7509L20.3648 37.0162Z" fill="#B0FF00"/>
<path d="M20.2979 36.8079L4.34631 43.91L5.5736 46.6666L21.5252 39.5645L20.2979 36.8079Z" fill="#ACFF00"/>
<path d="M20.2346 36.5985L4.1615 43.4211L5.3405 46.1987L21.4136 39.376L20.2346 36.5985Z" fill="#A8FF00"/>
<path d="M20.1751 36.3879L3.98535 42.929L5.11569 45.7266L21.3055 39.1856L20.1751 36.3879Z" fill="#A3FF00"/>
<path d="M20.1193 36.1764L3.81787 42.434L4.89921 45.251L21.2007 38.9934L20.1193 36.1764Z" fill="#9FFF00"/>
<path d="M20.0671 35.9638L3.65894 41.9359L4.69095 44.7714L21.0991 38.7993L20.0671 35.9638Z" fill="#9BFF00"/>
<path d="M20.0187 35.7505L3.50879 41.4353L4.49116 44.2883L21.0011 38.6035L20.0187 35.7505Z" fill="#97FF00"/>
<path d="M19.974 35.5363L3.36743 40.9321L4.29986 43.8019L20.9065 38.406L19.974 35.5363Z" fill="#93FF00"/>
<path d="M19.9331 35.3215L3.23486 40.4266L4.11707 43.3122L20.8153 38.207L19.9331 35.3215Z" fill="#8EFF00"/>
<path d="M19.8959 35.1059L3.11108 39.9188L3.94279 42.8193L20.7276 38.0064L19.8959 35.1059Z" fill="#8AFF00"/>
<path d="M19.8625 34.8895L2.99622 39.4088L3.77718 42.3234L20.6434 37.8041L19.8625 34.8895Z" fill="#86FF00"/>
<path d="M19.8328 34.6728L2.89026 38.8971L3.62024 41.8249L20.5628 37.6006L19.8328 34.6728Z" fill="#82FF00"/>
<path d="M19.8069 34.4555L2.79321 38.3834L3.47198 41.3235L20.4857 37.3956L19.8069 34.4555Z" fill="#7DFF00"/>
<path d="M19.7849 34.2379L2.7052 37.8683L3.33256 40.8198L20.4122 37.1894L19.7849 34.2379Z" fill="#79FF00"/>
<path d="M19.7665 34.0198L2.6261 37.3516L3.20185 40.3135L20.3423 36.9818L19.7665 34.0198Z" fill="#75FF00"/>
<path d="M19.7521 33.8015L2.55615 36.8336L3.08012 39.8052L20.2761 36.7731L19.7521 33.8015Z" fill="#71FF00"/>
<path d="M19.7415 33.583L2.49524 36.3146L2.96727 39.2948L20.2135 36.5633L19.7415 33.583Z" fill="#6CFF00"/>
<path d="M19.7347 33.3643L2.44336 35.7944L2.8633 38.7825L20.1546 36.3523L19.7347 33.3643Z" fill="#68FF00"/>
<path d="M19.7316 33.1456L2.40051 35.2736L2.76824 38.2685L20.0993 36.1405L19.7316 33.1456Z" fill="#64FF00"/>
<path d="M19.7324 32.9268L2.36682 34.752L2.68223 37.7528L20.0478 35.9276L19.7324 32.9268Z" fill="#60FF00"/>
<path d="M19.7371 32.708L2.34229 34.2299L2.60527 37.2358L20.0001 35.7139L19.7371 32.708Z" fill="#5BFF00"/>
<path d="M19.7455 32.4894L2.32678 33.7074L2.53727 36.7175L19.956 35.4994L19.7455 32.4894Z" fill="#57FF00"/>
<path d="M19.7577 32.2708L2.32043 33.1847L2.47835 36.198L19.9157 35.2841L19.7577 32.2708Z" fill="#53FF00"/>
<path d="M19.7738 32.0527L2.32324 32.6621L2.42855 35.6777L19.8791 35.0683L19.7738 32.0527Z" fill="#4FFF00"/>
<path d="M19.7937 31.8348L2.33508 32.1395L2.38774 35.1565L19.8463 34.8517L19.7937 31.8348Z" fill="#4AFF00"/>
<path d="M19.8173 31.6173H2.35608V34.6347H19.8173V31.6173Z" fill="#46FF00"/>
<path d="M19.8448 31.4002L2.38623 31.0955L2.33357 34.1124L19.7921 34.4172L19.8448 31.4002Z" fill="#42FF00"/>
<path d="M19.876 31.1837L2.42542 30.5743L2.32011 33.5899L19.7707 34.1993L19.876 31.1837Z" fill="#3EFF00"/>
<path d="M19.9111 30.9677L2.47375 30.0538L2.31584 33.0671L19.7531 33.981L19.9111 30.9677Z" fill="#3AFF00"/>
<path d="M19.9498 30.7523L2.53113 29.5343L2.32064 32.5444L19.7393 33.7624L19.9498 30.7523Z" fill="#35FF00"/>
<path d="M19.9923 30.5377L2.59753 29.0159L2.33455 32.0218L19.7293 33.5436L19.9923 30.5377Z" fill="#31FF00"/>
<path d="M20.0387 30.3239L2.6731 28.4987L2.35769 31.4995L19.7233 33.3247L20.0387 30.3239Z" fill="#2DFF00"/>
<path d="M20.0886 30.1109L2.75757 27.9829L2.38984 30.9778L19.7209 33.1058L20.0886 30.1109Z" fill="#29FF00"/>
<path d="M20.1424 29.8988L2.85107 27.4686L2.43113 30.4567L19.7224 32.8868L20.1424 29.8988Z" fill="#24FF00"/>
<path d="M20.1997 29.6877L2.95349 26.9562L2.48146 29.9364L19.7277 32.668L20.1997 29.6877Z" fill="#20FF00"/>
<path d="M20.2609 29.4775L3.06494 26.4454L2.54097 29.417L19.7369 32.4491L20.2609 29.4775Z" fill="#1CFF00"/>
<path d="M20.3256 29.2685L3.18518 25.9368L2.60943 28.8987L19.7499 32.2305L20.3256 29.2685Z" fill="#18FF00"/>
<path d="M20.394 29.0607L3.31433 25.4303L2.68698 28.3818L19.7666 32.0122L20.394 29.0607Z" fill="#13FF00"/>
<path d="M20.466 28.8542L3.45227 24.9263L2.7735 27.8663L19.7872 31.7943L20.466 28.8542Z" fill="#0FFF00"/>
<path d="M20.5416 28.6488L3.599 24.4246L2.86902 27.3523L19.8116 31.5766L20.5416 28.6488Z" fill="#0BFF00"/>
<path d="M20.6206 28.4448L3.75439 23.9255L2.97343 26.8401L19.8397 31.3594L20.6206 28.4448Z" fill="#07FF00"/>
<path d="M20.7034 28.2423L3.91858 23.4293L3.08687 26.3298L19.8717 31.1428L20.7034 28.2423Z" fill="#02FF00"/>
<path d="M20.7896 28.0412L4.09131 22.936L3.2091 25.8216L19.9074 30.9268L20.7896 28.0412Z" fill="#00FF02"/>
<path d="M20.8793 27.8416L4.27271 22.4458L3.34027 25.3155L19.9469 30.7113L20.8793 27.8416Z" fill="#00FF06"/>
<path d="M20.9726 27.6437L4.46265 21.9589L3.48027 24.8119L19.9902 30.4967L20.9726 27.6437Z" fill="#00FF0A"/>
<path d="M21.0692 27.4474L4.66101 21.4753L3.629 24.3108L20.0372 30.2829L21.0692 27.4474Z" fill="#00FF0F"/>
<path d="M21.1693 27.2528L4.8678 20.9952L3.78645 23.8122L20.0879 30.0698L21.1693 27.2528Z" fill="#00FF13"/>
<path d="M21.2727 27.06L5.08289 20.5189L3.95254 23.3166L20.1423 29.8577L21.2727 27.06Z" fill="#00FF17"/>
<path d="M21.3794 26.869L5.30627 20.0464L4.12728 22.8239L20.2004 29.6466L21.3794 26.869Z" fill="#00FF1B"/>
<path d="M21.4895 26.68L5.53784 19.5779L4.31055 22.3344L20.2622 29.4365L21.4895 26.68Z" fill="#00FF1F"/>
<path d="M21.6028 26.4928L5.77759 19.1134L4.50238 21.8481L20.3276 29.2275L21.6028 26.4928Z" fill="#00FF24"/>
<path d="M21.7196 26.3077L6.02551 18.6532L4.70277 21.3652L20.3968 29.0197L21.7196 26.3077Z" fill="#00FF28"/>
<path d="M21.8393 26.1246L6.28125 18.1974L4.91137 20.8859L20.4694 28.8132L21.8393 26.1246Z" fill="#00FF2C"/>
<path d="M21.9624 25.9438L6.54504 17.7462L5.12846 20.4104L20.5458 28.608L21.9624 25.9438Z" fill="#00FF30"/>
<path d="M22.0885 25.7649L6.81653 17.2996L5.35366 19.9386L20.6256 28.404L22.0885 25.7649Z" fill="#00FF35"/>
<path d="M22.2178 25.5884L7.09595 16.8578L5.58724 19.4709L20.7091 28.2016L22.2178 25.5884Z" fill="#00FF39"/>
<path d="M22.3501 25.4142L7.38293 16.421L5.82885 19.0074L20.796 28.0006L22.3501 25.4142Z" fill="#00FF3D"/>
<path d="M22.4855 25.2423L7.67749 15.9893L6.07851 18.5482L20.8865 27.8012L22.4855 25.2423Z" fill="#00FF41"/>
<path d="M22.6237 25.0727L7.97949 15.5626L6.33609 18.0932L20.9803 27.6033L22.6237 25.0727Z" fill="#00FF46"/>
<path d="M22.765 24.9057L8.28894 15.1415L6.60163 17.643L21.0776 27.4072L22.765 24.9057Z" fill="#00FF4A"/>
<path d="M22.9091 24.7411L8.60571 14.7257L6.875 17.1974L21.1784 27.2128L22.9091 24.7411Z" fill="#00FF4E"/>
<path d="M23.0561 24.579L8.92969 14.3156L7.1561 16.7567L21.2825 27.0201L23.0561 24.579Z" fill="#00FF52"/>
<path d="M23.2059 24.4194L9.26074 13.911L7.44482 16.3208L21.39 26.8293L23.2059 24.4194Z" fill="#00FF57"/>
<path d="M23.3585 24.2627L9.59888 13.5125L7.74117 15.8902L21.5008 26.6404L23.3585 24.2627Z" fill="#00FF5B"/>
<path d="M23.5138 24.1086L9.94385 13.1199L8.04493 15.4648L21.6149 26.4536L23.5138 24.1086Z" fill="#00FF5F"/>
<path d="M23.6717 23.9571L10.2957 12.7333L8.3561 15.0447L21.7322 26.2686L23.6717 23.9571Z" fill="#00FF63"/>
<path d="M23.8323 23.8085L10.6542 12.3529L8.67458 14.6302L21.8527 26.0858L23.8323 23.8085Z" fill="#00FF68"/>
<path d="M23.9954 23.6627L11.0192 11.9789L9.00012 14.2213L21.9763 25.9051L23.9954 23.6627Z" fill="#00FF6C"/>
<path d="M24.1611 23.5197L11.3907 11.6112L9.33288 13.818L22.1032 25.7265L24.1611 23.5197Z" fill="#00FF70"/>
<path d="M24.3292 23.3797L11.7687 11.2501L9.67261 13.4207L22.2332 25.5503L24.3292 23.3797Z" fill="#00FF74"/>
<path d="M24.4997 23.2427L12.1527 10.8958L10.0191 13.0294L22.366 25.3763L24.4997 23.2427Z" fill="#00FF78"/>
<path d="M24.6727 23.1087L12.5431 10.5481L10.3725 12.6442L22.5021 25.2047L24.6727 23.1087Z" fill="#00FF7D"/>
<path d="M24.8479 22.9776L12.9393 10.2073L10.7325 12.2651L22.6411 25.0355L24.8479 22.9776Z" fill="#00FF81"/>
<path d="M25.0253 22.8496L13.3414 9.87341L11.0991 11.8925L22.7829 24.8687L25.0253 22.8496Z" fill="#00FF85"/>
<path d="M25.205 22.7248L13.7494 9.54663L11.4721 11.5262L22.9277 24.7044L25.205 22.7248Z" fill="#00FF89"/>
<path d="M25.3868 22.6031L14.163 9.22705L11.8515 11.1666L23.0754 24.5427L25.3868 22.6031Z" fill="#00FF8E"/>
<path d="M25.5707 22.4846L14.582 8.91467L12.2371 10.8136L23.2258 24.3835L25.5707 22.4846Z" fill="#00FF92"/>
<path d="M25.7568 22.3694L15.0066 8.60974L12.6288 10.4674L23.379 24.2271L25.7568 22.3694Z" fill="#00FF96"/>
<path d="M25.9447 22.2573L15.4363 8.31213L13.0265 10.1281L23.5349 24.0732L25.9447 22.2573Z" fill="#00FF9A"/>
<path d="M26.1345 22.1486L15.8711 8.02222L13.43 9.79581L23.6934 23.9222L26.1345 22.1486Z" fill="#00FF9F"/>
<path d="M26.3264 22.0433L16.311 7.73987L13.8393 9.47058L23.8547 23.774L26.3264 22.0433Z" fill="#00FFA3"/>
<path d="M26.5199 21.9412L16.7557 7.46521L14.2542 9.15252L24.0184 23.6285L26.5199 21.9412Z" fill="#00FFA7"/>
<path d="M26.7153 21.8427L17.2052 7.19849L14.6746 8.84189L24.1847 23.4861L26.7153 21.8427Z" fill="#00FFAB"/>
<path d="M26.9122 21.7474L17.6592 6.93945L15.1003 8.53844L24.3533 23.3464L26.9122 21.7474Z" fill="#00FFB0"/>
<path d="M27.1109 21.6557L18.1177 6.68848L15.5313 8.24256L24.5244 23.2098L27.1109 21.6557Z" fill="#00FFB4"/>
<path d="M27.3111 21.5674L18.5804 6.44556L15.9673 7.95426L24.6979 23.0761L27.3111 21.5674Z" fill="#00FFB8"/>
<path d="M27.5127 21.4828L19.0474 6.21082L16.4083 7.67368L24.8736 22.9456L27.5127 21.4828Z" fill="#00FFBC"/>
<path d="M27.716 21.4015L19.5184 5.98413L16.8542 7.40072L25.0518 22.8181L27.716 21.4015Z" fill="#00FFC1"/>
<path d="M27.9205 21.3238L19.9933 5.76575L17.3048 7.13562L25.232 22.6937L27.9205 21.3238Z" fill="#00FFC5"/>
<path d="M28.1263 21.2497L20.4718 5.55566L17.7598 6.87841L25.4143 22.5725L28.1263 21.2497Z" fill="#00FFC9"/>
<path d="M28.3335 21.1793L20.9541 5.354L18.2194 6.62922L25.5988 22.4545L28.3335 21.1793Z" fill="#00FFCD"/>
<path d="M28.5418 21.1124L21.4397 5.16077L18.6832 6.38806L25.7853 22.3397L28.5418 21.1124Z" fill="#00FFD1"/>
<path d="M28.7512 21.0492L21.9286 4.97607L19.151 6.15507L25.9737 22.2282L28.7512 21.0492Z" fill="#00FFD6"/>
<path d="M28.9619 20.9897L22.4208 4.79993L19.6231 5.93027L26.1642 22.12L28.9619 20.9897Z" fill="#00FFDA"/>
<path d="M29.1733 20.9339L22.9158 4.63245L20.0988 5.71379L26.3563 22.0153L29.1733 20.9339Z" fill="#00FFDE"/>
<path d="M29.3859 20.8817L23.4138 4.47351L20.5784 5.50553L26.5505 21.9137L29.3859 20.8817Z" fill="#00FFE2"/>
<path d="M29.5992 20.8333L23.9144 4.32336L21.0614 5.30574L26.7462 21.8157L29.5992 20.8333Z" fill="#00FFE7"/>
<path d="M29.8134 20.7886L24.4176 4.18201L21.5479 5.11444L26.9437 21.7211L29.8134 20.7886Z" fill="#00FFEB"/>
<path d="M30.0283 20.7476L24.9231 4.04932L22.0375 4.93152L27.1427 21.6298L30.0283 20.7476Z" fill="#00FFEF"/>
<path d="M30.2439 20.7103L25.4309 3.92554L22.5304 4.75725L27.3434 21.5421L30.2439 20.7103Z" fill="#00FFF3"/>
<path d="M30.4602 20.6769L25.9409 3.81067L23.0263 4.59163L27.5456 21.4579L30.4602 20.6769Z" fill="#00FFF8"/>
<path d="M30.6769 20.6473L26.4526 3.70471L23.5249 4.43469L27.7491 21.3772L30.6769 20.6473Z" fill="#00FFFC"/>
<path d="M30.8942 20.6215L26.9663 3.60779L24.0262 4.28656L27.9542 21.3003L30.8942 20.6215Z" fill="#00FEFF"/>
<path d="M31.1118 20.5994L27.4814 3.51978L24.53 4.14713L28.1604 21.2268L31.1118 20.5994Z" fill="#00FAFF"/>
<path d="M31.3299 20.5811L27.9982 3.44067L25.0362 4.01642L28.368 21.1568L31.3299 20.5811Z" fill="#00F5FF"/>
<path d="M31.5482 20.5667L28.5161 3.37073L25.5445 3.8947L28.5767 21.0907L31.5482 20.5667Z" fill="#00F1FF"/>
<path d="M31.7667 20.5559L29.0352 3.30969L26.0549 3.78172L28.7864 21.028L31.7667 20.5559Z" fill="#00EDFF"/>
<path d="M31.9854 20.5491L29.5553 3.25781L26.5673 3.67775L28.9974 20.9691L31.9854 20.5491Z" fill="#00E9FF"/>
<path d="M32.2042 20.5462L30.0762 3.21509L27.0813 3.58282L29.2092 20.9139L32.2042 20.5462Z" fill="#00E4FF"/>
<path d="M32.423 20.547L30.5978 3.1814L27.5969 3.4968L29.4221 20.8624L32.423 20.547Z" fill="#00E0FF"/>
<path d="M32.6417 20.5515L31.1199 3.15674L28.1139 3.41972L29.6358 20.8145L32.6417 20.5515Z" fill="#00DCFF"/>
<path d="M32.8604 20.5601L31.6423 3.14136L28.6323 3.35184L29.8503 20.7705L32.8604 20.5601Z" fill="#00D8FF"/>
<path d="M33.0789 20.5723L32.165 3.13501L29.1518 3.29293L30.0656 20.7302L33.0789 20.5723Z" fill="#00D4FF"/>
<path d="M33.297 20.5883L32.6876 3.1377L29.672 3.243L30.2814 20.6936L33.297 20.5883Z" fill="#00CFFF"/>
<path d="M33.5149 20.6082L33.2102 3.14966L30.1933 3.20232L30.498 20.6609L33.5149 20.6082Z" fill="#00CBFF"/>
<path d="M33.7324 20.6319V3.17065H30.715V20.6319H33.7324Z" fill="#00C7FF"/>
<path d="M33.9495 20.6594L34.2543 3.20081L31.2373 3.14814L30.9326 20.6067L33.9495 20.6594Z" fill="#00C3FF"/>
<path d="M34.166 20.6906L34.7754 3.23999L31.7598 3.13468L31.1504 20.5853L34.166 20.6906Z" fill="#00BEFF"/>
<path d="M34.382 20.7256L35.2959 3.28833L32.2826 3.13041L31.3688 20.5677L34.382 20.7256Z" fill="#00BAFF"/>
<path d="M34.5974 20.7644L35.8154 3.3457L32.8054 3.13522L31.5873 20.5539L34.5974 20.7644Z" fill="#00B6FF"/>
<path d="M34.812 20.8069L36.3339 3.41211L33.3279 3.14912L31.8061 20.5439L34.812 20.8069Z" fill="#00B2FF"/>
<path d="M35.0259 20.8532L36.8511 3.48767L33.8502 3.17227L32.025 20.5378L35.0259 20.8532Z" fill="#00ADFF"/>
<path d="M35.2388 20.9032L37.3668 3.57214L34.3719 3.20441L32.2439 20.5355L35.2388 20.9032Z" fill="#00A9FF"/>
<path d="M35.451 20.9569L37.8811 3.66565L34.8931 3.24571L32.4629 20.537L35.451 20.9569Z" fill="#00A5FF"/>
<path d="M35.662 21.0143L38.3936 3.76807L35.4133 3.29604L32.6818 20.5423L35.662 21.0143Z" fill="#00A1FF"/>
<path d="M35.8722 21.0754L38.9043 3.87939L35.9327 3.35543L32.9006 20.5514L35.8722 21.0754Z" fill="#009CFF"/>
<path d="M36.0812 21.1402L39.413 3.99976L36.451 3.42401L33.1192 20.5644L36.0812 21.1402Z" fill="#0098FF"/>
<path d="M36.289 21.2084L39.9194 4.12878L36.968 3.50143L33.3376 20.5811L36.289 21.2084Z" fill="#0094FF"/>
<path d="M36.4955 21.2805L40.4235 4.26685L37.4834 3.58808L33.5555 20.6018L36.4955 21.2805Z" fill="#0090FF"/>
<path d="M36.7009 21.3561L40.9252 4.41357L37.9974 3.6836L33.7731 20.6262L36.7009 21.3561Z" fill="#008BFF"/>
<path d="M36.9049 21.4352L41.4242 4.56897L38.5096 3.78801L33.9903 20.6543L36.9049 21.4352Z" fill="#0087FF"/>
<path d="M37.1074 21.518L41.9204 4.73315L39.0199 3.90144L34.2069 20.6863L37.1074 21.518Z" fill="#0083FF"/>
<path d="M37.3085 21.6041L42.4137 4.90588L39.5281 4.02368L34.423 20.7219L37.3085 21.6041Z" fill="#007FFF"/>
<path d="M37.5081 21.6939L42.9039 5.08728L40.0342 4.15485L34.6384 20.7615L37.5081 21.6939Z" fill="#007BFF"/>
<path d="M37.706 21.7871L43.3909 5.27722L40.5379 4.29485L34.853 20.8048L37.706 21.7871Z" fill="#0076FF"/>
<path d="M37.9023 21.8838L43.8744 5.47559L41.039 4.44357L35.0669 20.8518L37.9023 21.8838Z" fill="#0072FF"/>
<path d="M38.0969 21.9837L44.3545 5.68225L41.5375 4.60091L35.28 20.9024L38.0969 21.9837Z" fill="#006EFF"/>
<path d="M38.2897 22.0872L44.8308 5.89746L42.0331 4.76712L35.492 20.9569L38.2897 22.0872Z" fill="#006AFF"/>
<path d="M38.4807 22.194L45.3033 6.12085L42.5258 4.94185L35.7032 21.015L38.4807 22.194Z" fill="#0065FF"/>
<path d="M38.6697 22.304L45.7719 6.35242L43.0153 5.12513L35.9132 21.0768L38.6697 22.304Z" fill="#0061FF"/>
<path d="M38.8569 22.4174L46.2363 6.59216L43.5016 5.31695L36.1222 21.1422L38.8569 22.4174Z" fill="#005DFF"/>
<path d="M39.042 22.534L46.6965 6.83997L43.9845 5.51722L36.33 21.2113L39.042 22.534Z" fill="#0059FF"/>
<path d="M39.2251 22.6539L47.1523 7.09583L44.4638 5.72595L36.5366 21.284L39.2251 22.6539Z" fill="#0054FF"/>
<path d="M39.406 22.7768L47.6035 7.3595L44.9393 5.94291L36.7417 21.3603L39.406 22.7768Z" fill="#0050FF"/>
<path d="M39.5848 22.903L48.0502 7.6311L45.4111 6.16823L36.9457 21.4402L39.5848 22.903Z" fill="#004CFF"/>
<path d="M39.7613 23.0323L48.4919 7.9104L45.8788 6.4017L37.1482 21.5236L39.7613 23.0323Z" fill="#0048FF"/>
<path d="M39.9355 23.1646L48.9287 8.19739L46.3423 6.64331L37.3491 21.6105L39.9355 23.1646Z" fill="#0043FF"/>
<path d="M40.1074 23.2999L49.3605 8.49194L46.8016 6.89296L37.5485 21.7009L40.1074 23.2999Z" fill="#003FFF"/>
<path d="M40.277 23.4383L49.7871 8.79407L47.2565 7.15067L37.7464 21.7949L40.277 23.4383Z" fill="#003BFF"/>
<path d="M40.4441 23.5795L50.2083 9.10352L47.7067 7.4162L37.9425 21.8922L40.4441 23.5795Z" fill="#0037FF"/>
<path d="M40.6087 23.7237L50.624 9.42029L48.1523 7.68957L38.137 21.993L40.6087 23.7237Z" fill="#0032FF"/>
<path d="M40.7707 23.8707L51.0342 9.74426L48.593 7.97067L38.3296 22.0971L40.7707 23.8707Z" fill="#002EFF"/>
<path d="M40.9303 24.0205L51.4387 10.0753L49.0289 8.25939L38.5205 22.2046L40.9303 24.0205Z" fill="#002AFF"/>
<path d="M41.0871 24.1731L51.8373 10.4135L49.4595 8.55575L38.7093 22.3154L41.0871 24.1731Z" fill="#0026FF"/>
<path d="M41.2411 24.3283L52.2299 10.7584L49.8849 8.8595L38.8962 22.4294L41.2411 24.3283Z" fill="#0022FF"/>
<path d="M33.3982 64.8145H31.4768C31.3877 64.782 31.2983 64.7739 31.2083 64.7739C30.1825 64.7253 29.1641 64.6427 28.1546 64.5054C26.2662 64.2611 24.4094 63.8458 22.6021 63.2685C19.5002 62.2758 16.61 60.8514 13.9314 58.9951C11.4475 57.2691 9.25016 55.2344 7.33651 52.8907C5.08048 50.1393 3.32255 47.1029 2.07633 43.7664C0.96055 40.8036 0.293123 37.7356 0.0891195 34.5689C0.0891195 34.398 0.0567126 34.2271 0 34.0561V30.7107C0.0567126 30.5633 0.0810177 30.4093 0.0891195 30.2549C0.129629 29.4977 0.210647 28.7405 0.309489 27.9922C0.798352 24.3785 1.87233 20.9509 3.52542 17.7031C4.66518 15.4644 6.04946 13.3816 7.67711 11.4595C9.28937 9.55527 11.0969 7.85341 13.0992 6.36429C16.3642 3.93829 19.9549 2.18846 23.8788 1.11465C25.7837 0.594348 27.7302 0.252452 29.6998 0.08912C30.0494 0.0567128 30.4166 0.0891199 30.7663 0H34.0555C34.3076 0.0729163 34.5685 0.032407 34.8204 0.0567124C36.1238 0.170138 37.4182 0.333956 38.7038 0.585922C42.7505 1.38363 46.5032 2.89802 49.9723 5.13525C52.6676 6.86887 55.0448 8.9606 57.1206 11.3942C58.7901 13.3479 60.206 15.4725 61.3624 17.7669C62.7302 20.478 63.7068 23.318 64.2616 26.3049C64.5542 27.8838 64.7746 29.4792 64.782 31.091C64.782 31.1979 64.8064 31.3114 64.8145 31.4164V33.3375C64.782 33.459 64.782 33.5894 64.7739 33.7197C64.7739 34.0287 64.7739 34.339 64.7496 34.6479C64.6022 36.6181 64.2937 38.563 63.8048 40.4838C62.8687 44.0899 61.3616 47.4353 59.2692 50.5196C57.7139 52.8152 55.8989 54.8829 53.8141 56.7138C51.7383 58.5372 49.4661 60.0757 46.9989 61.3203C44.1568 62.7524 41.169 63.7463 38.0343 64.2907C36.8297 64.5022 35.6163 64.6403 34.3954 64.7137C34.0738 64.7509 33.7325 64.7432 33.3982 64.8145Z" fill="#383838"/>
<path style="mix-blend-mode:lighten" d="M23.9783 18.9607C23.9556 19.5561 24.0614 20.2071 24.2368 20.8582C24.571 22.097 25.125 23.2321 25.7782 24.3044C27.2662 26.7427 29.1418 28.8302 31.1768 30.7683C31.3435 30.9277 31.5419 31.0622 31.7543 31.1648C31.9671 31.2754 32.1795 31.2754 32.3994 31.1805C32.6118 31.0857 32.8019 30.9507 32.9615 30.7754C33.6677 30.0452 34.3658 29.314 35.0343 28.5593C35.9756 27.4871 36.8721 26.3841 37.6846 25.2007C38.4216 24.1287 39.0818 23.0008 39.5673 21.778C40.0528 20.5625 40.2888 19.3088 40.1294 17.9907C39.8636 15.8155 38.9756 13.9725 37.3883 12.5274C35.5114 10.8215 33.3253 10.1385 30.8651 10.519C26.8637 11.1391 23.9629 14.8239 23.9783 18.9607Z" fill="url(#paint0_radial_1328_199)"/>
<path d="M44.6865 48.6086C44.1829 48.6239 43.6174 48.5616 43.052 48.4415C41.3794 48.0754 39.9587 47.3149 38.8669 45.9665C38.2029 45.1443 37.6447 44.2533 37.1636 43.3162C36.5979 42.2119 36.1253 41.0615 35.7131 39.8969C35.2095 38.4883 34.7818 37.0488 34.4526 35.5939C34.2698 34.7788 34.4753 34.2682 35.3768 33.9874C36.5219 33.6296 37.6756 33.3097 38.8516 33.0503C40.7985 32.6236 42.761 32.35 44.7627 32.4174C45.3282 32.4401 45.8924 32.5008 46.4506 32.5998C48.0698 32.882 49.4441 33.6284 50.5666 34.8084C52.4839 36.819 53.2466 39.218 52.7738 41.9525C52.0943 45.8599 48.6268 48.6394 44.6865 48.6086Z" fill="url(#paint1_radial_1328_199)"/>
<path d="M19.4672 48.6086C19.9708 48.6239 20.5363 48.5616 21.1017 48.4415C22.7743 48.0754 24.195 47.3149 25.2868 45.9665C25.9508 45.1443 26.509 44.2533 26.9901 43.3162C27.5558 42.2119 28.0284 41.0615 28.4406 39.8969C28.9442 38.4883 29.3719 37.0488 29.7011 35.5939C29.8839 34.7788 29.6784 34.2682 28.7769 33.9874C27.6318 33.6296 26.4781 33.3097 25.3021 33.0503C23.3552 32.6236 21.3927 32.35 19.391 32.4174C18.8255 32.4401 18.2612 32.5008 17.703 32.5998C16.0839 32.882 14.7096 33.6284 13.5871 34.8084C11.6697 36.819 10.9071 39.218 11.3799 41.9525C12.0594 45.8599 15.5269 48.6394 19.4672 48.6086Z" fill="url(#paint2_radial_1328_199)"/>
</g>
<defs>
<radialGradient id="paint0_radial_1328_199" cx="0" cy="0" r="1" gradientUnits="userSpaceOnUse" gradientTransform="translate(32.2338 30.1699) rotate(4.82254) scale(8.60598 15.9082)">
<stop stop-color="white"/>
<stop offset="1" stop-color="#363636"/>
</radialGradient>
<radialGradient id="paint1_radial_1328_199" cx="0" cy="0" r="1" gradientUnits="userSpaceOnUse" gradientTransform="translate(34.4816 35.096) rotate(21.7759) scale(18.9779 10.1414)">
<stop stop-color="white"/>
<stop offset="1" stop-color="#868686"/>
</radialGradient>
<radialGradient id="paint2_radial_1328_199" cx="0" cy="0" r="1" gradientUnits="userSpaceOnUse" gradientTransform="translate(29.5714 34.4083) rotate(146.321) scale(19.1786 8.71766)">
<stop stop-color="white"/>
<stop offset="1" stop-color="white"/>
</radialGradient>
<clipPath id="clip0_1328_199">
<rect width="65" height="65" fill="white"/>
</clipPath>
</defs>
</svg>
