<svg width="41" height="58" viewBox="0 0 41 58" fill="none" xmlns="http://www.w3.org/2000/svg">
<g clip-path="url(#clip0_1327_187)">
<path fill-rule="evenodd" clip-rule="evenodd" d="M18.2669 5.15661H11.6785C8.0399 5.15661 5.0902 8.1063 5.0902 11.7449C5.0902 15.3836 8.0399 18.3333 11.6785 18.3333H18.2669V5.15661ZM18.2669 0.689941H22.7335H29.3219C35.4276 0.689941 40.3766 5.63941 40.3766 11.7449C40.3766 15.3479 38.6534 18.5484 35.9855 20.5666C38.6534 22.5849 40.3766 25.7853 40.3766 29.3883C40.3766 35.4938 35.4276 40.4433 29.3219 40.4433C26.8532 40.4433 24.5735 39.6341 22.7335 38.2665V40.4433V47.0317C22.7335 53.1371 17.784 58.0867 11.6785 58.0867C5.573 58.0867 0.623535 53.1371 0.623535 47.0317C0.623535 43.4284 2.34713 40.2282 5.01481 38.2099C2.34713 36.1917 0.623535 32.9913 0.623535 29.3883C0.623535 25.7853 2.34718 22.5849 5.01489 20.5667C2.34718 18.5484 0.623535 15.3479 0.623535 11.7449C0.623535 5.63941 5.573 0.689941 11.6785 0.689941H18.2669ZM22.7335 5.15661V18.3333H29.3219C32.9606 18.3333 35.91 15.3836 35.91 11.7449C35.91 8.1063 32.9606 5.15661 29.3219 5.15661H22.7335ZM11.6785 35.9766H18.2669V29.4053V29.3883V29.3713V22.8H11.6785C8.0399 22.8 5.0902 25.7497 5.0902 29.3883C5.0902 33.0182 8.02578 35.9625 11.6524 35.9766L11.6785 35.9766ZM5.0902 47.0317C5.0902 43.4016 8.02578 40.4574 11.6524 40.4433L11.6785 40.4433H18.2669V47.0317C18.2669 50.6702 15.3172 53.62 11.6785 53.62C8.0399 53.62 5.0902 50.6702 5.0902 47.0317ZM22.7335 29.3752C22.7406 25.7426 25.6876 22.8 29.3219 22.8C32.9606 22.8 35.91 25.7497 35.91 29.3883C35.91 33.027 32.9606 35.9766 29.3219 35.9766C25.6876 35.9766 22.7406 33.0341 22.7335 29.4014V29.3752Z" fill="black"/>
</g>
<defs>
<clipPath id="clip0_1327_187">
<rect width="41" height="58" fill="white"/>
</clipPath>
</defs>
</svg>
