<svg width="83" height="83" viewBox="0 0 83 83" fill="none" xmlns="http://www.w3.org/2000/svg">
<g clip-path="url(#clip0_1328_578)">
<rect width="83" height="83" fill="#4F4F4F"/>
<path d="M41.5 83C64.4198 83 83 64.4198 83 41.5C83 18.5802 64.4198 0 41.5 0C18.5802 0 0 18.5802 0 41.5C0 64.4198 18.5802 83 41.5 83Z" fill="#4F4F4F"/>
<path d="M52.5931 36.4292C49.9718 24.8603 43.7768 21.0564 43.1097 19.6031C42.3802 18.5777 41.641 16.754 41.641 16.754C41.6288 16.7232 41.6094 16.6689 41.5867 16.6162C41.5113 17.6416 41.4724 18.0371 40.503 19.0714C39.0019 20.245 31.3 26.7075 30.6735 39.8513C30.0891 52.1101 39.5287 59.4147 40.8053 60.346L40.9504 60.449V60.44C40.9585 60.5016 41.3557 63.358 41.6345 66.3846H42.6347C42.8694 64.2452 43.2212 62.1203 43.6884 60.0194L43.7695 59.9667C44.3405 59.5572 44.885 59.1119 45.3995 58.6333L45.4579 58.5807C48.1716 56.0736 53.0502 50.275 53.0024 41.0299C52.9923 39.4877 52.8554 37.949 52.5931 36.4292ZM41.5283 53.4248C41.5283 53.4248 41.5283 36.2314 42.0957 36.2347C42.5383 36.2347 43.1113 58.4121 43.1113 58.4121C42.3235 58.3172 41.5283 54.7622 41.5283 53.4248Z" fill="white"/>
</g>
<defs>
<clipPath id="clip0_1328_578">
<rect width="83" height="83" fill="white"/>
</clipPath>
</defs>
</svg>
