<svg width="63" height="63" viewBox="0 0 63 63" fill="none" xmlns="http://www.w3.org/2000/svg">
<path d="M0 38V50.3103C0.10443 56.7724 10.8399 62 27.5 62C44.1601 62 54.8886 56.7724 55 50.3103V38H0Z" fill="black"/>
<path d="M55 38.5C55 45.4028 44.2228 51 27.5 51C10.7772 51 0 45.4028 0 38.5C0 31.5972 10.7772 26 27.5 26C44.2228 26 55 31.5903 55 38.5Z" fill="white"/>
<path d="M0 26V36.7855C0.10443 43.1615 10.8399 49 27.5 49C44.1601 49 54.8886 43.1615 55 36.7855V26H0Z" fill="black"/>
<path d="M55 25C55 32.1789 44.2228 38 27.5 38C10.7772 38 0 32.1789 0 25C0 17.8211 10.7772 12 27.5 12C44.2228 12 55 17.8139 55 25Z" fill="white"/>
<path d="M0 13V23.7855C0.10443 30.1615 10.8399 36 27.5 36C44.1601 36 54.8886 30.1615 55 23.7855V13H0Z" fill="black"/>
<path d="M55 13C55 20.1789 44.2228 26 27.5 26C10.7772 26 0 20.1789 0 13C0 5.82111 10.7772 0 27.5 0C44.2228 0 55 5.81389 55 13Z" fill="#989898"/>
</svg>
