<svg width="63" height="70" viewBox="0 0 63 70" fill="none" xmlns="http://www.w3.org/2000/svg">
<rect width="63" height="70" fill="#848484" fill-opacity="0.2"/>
<mask id="mask0_1328_190" style="mask-type:luminance" maskUnits="userSpaceOnUse" x="0" y="0" width="63" height="70">
<path d="M62.0069 0H0V70H62.0069V0Z" fill="white"/>
</mask>
<g mask="url(#mask0_1328_190)">
<path d="M32 62.087C31.2547 62.087 30.559 61.8882 29.913 61.5404L23.3043 57.6149C22.3105 57.0683 22.8074 56.8696 23.1056 56.7702C24.4472 56.323 24.6956 56.2236 26.0869 55.4286C26.236 55.3292 26.4348 55.3789 26.5838 55.4783L31.6522 58.5093C31.8509 58.6087 32.0994 58.6087 32.2484 58.5093L52.0746 47.031C52.2733 46.9317 52.3727 46.7329 52.3727 46.4845V23.5777C52.3727 23.3292 52.2733 23.1305 52.0746 23.0311L32.2484 11.6025C32.0497 11.5031 31.8012 11.5031 31.6522 11.6025L11.8261 23.0311C11.6273 23.1305 11.5279 23.3789 11.5279 23.5777V46.4845C11.5279 46.6832 11.6273 46.9317 11.8261 47.031L17.2422 50.1615C20.1739 51.6522 22.0124 49.913 22.0124 48.1739V25.5652C22.0124 25.2671 22.2608 24.969 22.6087 24.969H25.1428C25.441 24.969 25.7391 25.2174 25.7391 25.5652V48.1739C25.7391 52.0994 23.6025 54.3851 19.8758 54.3851C18.7329 54.3851 17.8385 54.3851 15.3044 53.1428L10.087 50.1615C8.79503 49.4161 8 48.0248 8 46.5341V23.6274C8 22.1367 8.79503 20.7454 10.087 20L29.913 8.52174C31.1553 7.82609 32.8447 7.82609 34.087 8.52174L53.9131 20C55.205 20.7454 56 22.1367 56 23.6274V46.5341C56 48.0248 55.205 49.4161 53.9131 50.1615L34.087 61.6398C33.441 61.9379 32.6957 62.087 32 62.087ZM38.1118 46.3354C29.4161 46.3354 27.6273 42.3602 27.6273 38.9814C27.6273 38.6832 27.8757 38.3851 28.2236 38.3851H30.8074C31.1056 38.3851 31.354 38.5838 31.354 38.882C31.7516 41.5155 32.8944 42.8074 38.1615 42.8074C42.3354 42.8074 44.1243 41.8633 44.1243 39.6273C44.1243 38.3354 43.6274 37.3913 37.1181 36.7453C31.7019 36.1988 28.323 35.0062 28.323 30.6832C28.323 26.6584 31.7019 24.2733 37.3665 24.2733C43.7268 24.2733 46.8572 26.4596 47.2547 31.2298C47.2547 31.3789 47.205 31.528 47.1056 31.677C47.0062 31.7764 46.8572 31.8758 46.7081 31.8758H44.1243C43.8758 31.8758 43.6274 31.677 43.5777 31.4286C42.9814 28.6957 41.441 27.8013 37.3665 27.8013C32.795 27.8013 32.2484 29.3913 32.2484 30.5839C32.2484 32.0249 32.8944 32.4721 39.0559 33.2671C45.1677 34.0621 48.0497 35.205 48.0497 39.4783C48 43.8509 44.4224 46.3354 38.1118 46.3354Z" fill="#585858"/>
</g>
</svg>
